if (_typeface_js && _typeface_js.loadFace) _typeface_js.loadFace({"glyphs":{"S":{"x_min":7.890625,"x_max":837.453125,"ha":882,"o":"m 837 979 l 811 846 q 674 901 742 882 q 544 920 607 920 q 348 866 421 920 q 276 723 276 812 q 302 648 276 674 q 440 592 329 622 l 522 572 q 716 481 662 536 q 771 326 771 425 q 650 76 771 172 q 333 -20 530 -20 q 171 -4 252 -20 q 7 44 89 11 l 35 185 q 186 114 110 138 q 337 91 262 91 q 542 148 465 91 q 620 296 620 205 q 589 389 620 357 q 456 446 558 420 l 374 467 q 183 552 234 504 q 132 686 132 600 q 248 934 132 837 q 551 1031 364 1031 q 695 1018 623 1031 q 837 979 766 1005 "},"Ⱬ":{"x_min":-14.921875,"x_max":992.84375,"ha":951,"o":"m 197 1013 l 992 1013 l 972 908 l 178 115 l 970 115 l 906 -217 l 769 -217 l 811 0 l -14 0 l 5 104 l 799 898 l 174 898 l 197 1013 "},"/":{"x_min":-101.71875,"x_max":592.71875,"ha":468,"o":"m 472 1013 l 592 1013 l 18 -129 l -101 -129 l 472 1013 "},"ⱡ":{"x_min":-22.375,"x_max":403.515625,"ha":386,"o":"m 245 475 l 365 475 l 346 377 l 226 377 l 153 0 l 28 0 l 101 377 l -22 377 l -3 475 l 120 475 l 139 572 l 15 572 l 34 670 l 158 670 l 233 1055 l 358 1055 l 283 670 l 403 670 l 384 572 l 264 572 l 245 475 "},"y":{"x_min":-34.59375,"x_max":837.53125,"ha":822,"o":"m 344 -70 q 203 -252 257 -216 q 63 -289 148 -289 l -34 -289 l -13 -185 l 58 -185 q 147 -156 110 -185 q 229 -45 183 -128 l 267 27 l 99 759 l 231 759 l 358 177 l 706 760 l 837 760 l 344 -70 "},"ⱥ":{"x_min":-27.09375,"x_max":875.921875,"ha":851,"o":"m 735 432 l 650 0 l 526 0 l 548 114 q 422 12 492 45 q 260 -20 352 -20 q 113 20 168 -20 l 27 -64 l -27 -11 l 65 78 q 52 220 36 136 q 176 413 77 348 q 444 478 274 478 l 472 478 l 604 608 q 591 625 598 616 q 441 672 543 672 q 311 656 376 672 q 183 609 246 640 l 206 724 q 347 764 280 751 q 474 777 413 777 q 697 700 631 777 l 821 821 l 875 768 l 734 630 q 735 432 758 552 m 625 523 l 580 479 l 619 479 l 621 491 q 625 523 625 507 m 482 381 l 210 115 q 313 84 246 84 q 494 157 417 84 q 595 353 571 231 l 600 381 l 482 381 m 175 187 l 367 374 q 260 346 299 366 q 179 228 195 311 q 175 187 175 206 "},"฿":{"x_min":48.15625,"x_max":817.109375,"ha":905,"o":"m 330 787 l 278 520 l 417 520 l 469 787 l 330 787 m 259 423 l 196 98 l 335 98 l 398 423 l 259 423 m 316 0 l 48 0 l 220 885 l 488 885 l 523 1068 l 591 1068 l 556 885 q 764 829 697 885 q 812 667 832 772 q 745 537 796 585 q 615 477 696 489 q 747 398 705 458 q 769 248 787 338 q 647 64 746 129 q 383 -1 547 -1 l 347 -191 l 279 -191 l 316 0 m 537 786 l 485 522 q 615 553 566 522 q 680 654 667 585 q 653 755 693 721 q 537 786 617 786 m 466 423 l 403 98 q 563 137 506 98 q 636 260 620 177 q 611 383 653 344 q 466 423 569 423 "},"ⱨ":{"x_min":42.046875,"x_max":823.296875,"ha":880,"o":"m 678 0 l 553 0 l 642 453 q 631 615 662 561 q 515 669 599 669 q 343 604 414 669 q 250 428 272 540 l 167 0 l 42 0 l 247 1055 l 373 1055 l 292 641 q 417 743 350 709 q 564 778 484 778 q 746 697 695 778 q 767 457 798 615 l 698 103 l 823 103 l 765 -193 l 640 -193 l 678 0 "},"g":{"x_min":45.015625,"x_max":827.859375,"ha":881,"o":"m 827 760 l 698 94 q 555 -194 661 -99 q 272 -289 450 -289 q 150 -279 206 -289 q 45 -249 93 -269 l 68 -127 q 165 -171 114 -157 q 275 -186 217 -186 q 470 -121 394 -186 q 570 64 546 -56 l 581 121 q 460 31 529 62 q 311 0 391 0 q 130 76 196 0 q 64 286 64 152 q 103 492 64 391 q 216 670 143 592 q 328 750 264 722 q 462 778 392 778 q 595 742 539 778 q 680 642 652 707 l 702 760 l 827 760 m 640 481 q 596 623 640 573 q 473 674 553 674 q 379 654 424 674 q 302 599 334 634 q 222 461 251 540 q 194 298 194 382 q 237 154 194 204 q 363 104 281 104 q 560 211 481 104 q 640 481 640 319 "},"Ɑ":{"x_min":62.03125,"x_max":1047.09375,"ha":1085,"o":"m 358 808 q 220 505 257 698 q 240 201 182 311 q 437 91 298 91 q 676 201 575 91 q 815 505 777 311 q 794 808 853 698 q 597 919 736 919 q 358 808 459 919 m 883 855 l 914 1012 l 1047 1012 l 850 0 l 717 0 l 748 156 q 589 23 678 66 q 389 -20 501 -20 q 119 124 206 -20 q 77 505 31 269 q 267 887 124 742 q 594 1032 410 1032 q 777 988 705 1032 q 883 855 849 944 "},"ꜳ":{"x_min":46.859375,"x_max":1263.84375,"ha":1368,"o":"m 476 381 q 260 346 325 381 q 179 228 195 311 q 202 122 166 161 q 314 84 238 84 q 494 157 417 84 q 595 353 571 231 l 600 381 l 476 381 m 1252 432 l 1167 0 l 1043 0 l 1065 114 q 939 12 1009 45 q 777 -20 869 -20 q 652 5 702 -20 l 651 0 l 526 0 l 548 114 q 422 12 493 45 q 260 -20 352 -20 q 87 45 143 -20 q 52 220 31 110 q 175 413 77 348 q 444 479 274 479 l 619 479 l 621 491 q 591 624 638 577 q 441 672 543 672 q 311 656 376 672 q 183 609 246 640 l 206 724 q 346 764 280 751 q 474 777 413 777 q 704 692 639 777 q 714 678 704 692 l 722 724 q 863 764 796 751 q 991 777 930 777 q 1221 692 1156 777 q 1252 432 1285 606 m 993 381 q 777 346 842 381 q 695 228 712 311 q 719 122 682 161 q 830 84 755 84 q 1011 157 934 84 q 1112 353 1088 231 l 1117 381 l 993 381 m 736 625 q 736 438 757 551 q 961 479 826 479 l 1136 479 l 1138 491 q 1108 624 1155 577 q 958 672 1060 672 q 828 656 893 672 q 736 625 781 645 "},"Ꙅ":{"x_min":-3.8125,"x_max":812.65625,"ha":882,"o":"m 200 979 q 359 1018 282 1005 q 507 1031 436 1031 q 752 953 673 1031 q 806 741 832 876 q 702 560 783 625 q 461 465 621 495 l 375 448 q 212 385 267 427 q 144 268 159 343 q 183 137 128 183 q 354 91 237 91 q 516 114 432 91 q 693 185 601 138 l 666 44 q 489 -3 573 12 q 332 -20 404 -20 q 59 56 142 -20 q 3 279 -25 132 q 114 476 27 402 q 360 579 202 550 l 446 596 q 610 651 563 617 q 670 752 657 685 q 634 876 686 833 q 469 920 581 920 q 332 901 405 920 q 174 846 259 883 l 200 979 "},"e":{"x_min":64,"x_max":793,"ha":855,"o":"m 667 447 q 670 469 669 457 q 672 492 672 481 q 623 623 672 575 q 491 672 575 672 q 327 613 398 672 q 219 447 256 554 l 667 447 m 776 350 l 195 350 q 190 309 191 324 q 189 283 189 294 q 247 137 189 189 q 410 85 305 85 q 564 104 492 85 q 699 157 637 122 l 676 34 q 537 -6 608 7 q 392 -20 465 -20 q 149 55 234 -20 q 64 270 64 131 q 106 491 64 389 q 230 673 148 593 q 356 750 283 723 q 511 777 429 777 q 716 700 640 777 q 793 493 793 623 q 788 426 793 461 q 776 350 784 390 "},"J":{"x_min":-227.859375,"x_max":369.609375,"ha":410,"o":"m 231 1013 l 369 1013 l 185 70 q 64 -195 149 -113 q -173 -278 -20 -278 l -227 -278 l -205 -163 l -162 -163 q -23 -110 -71 -163 q 48 70 23 -58 l 231 1013 "},"ꙮ":{"x_min":31.828125,"x_max":1188.875,"ha":1221,"o":"m 675 15 l 766 15 l 745 -90 l 654 -90 l 675 15 m 316 15 l 407 15 l 386 -90 l 295 -90 l 316 15 m 832 827 l 923 827 l 903 721 l 812 721 l 832 827 m 474 827 l 564 827 l 544 721 l 453 721 l 474 827 m 216 421 l 307 421 l 286 316 l 195 316 l 216 421 m 933 421 l 1024 421 l 1004 316 l 913 316 l 933 421 m 374 503 q 287 552 348 552 q 181 503 226 552 q 120 372 136 455 q 129 240 103 288 q 217 192 155 192 q 322 240 278 192 q 383 372 367 288 q 374 503 400 455 m 632 909 q 545 958 606 958 q 439 909 484 958 q 377 777 394 861 q 387 646 361 694 q 475 598 414 598 q 580 646 536 598 q 641 777 625 694 q 632 909 657 861 m 990 909 q 904 958 965 958 q 797 909 842 958 q 736 777 752 861 q 746 646 720 694 q 834 598 773 598 q 939 646 895 598 q 1000 777 984 694 q 990 909 1016 861 m 1091 503 q 1005 552 1066 552 q 898 503 944 552 q 837 372 853 455 q 847 240 821 288 q 934 192 873 192 q 1040 240 995 192 q 1101 372 1085 288 q 1091 503 1117 455 m 732 504 q 645 552 706 552 q 539 504 584 552 q 478 372 494 456 q 487 240 461 288 q 575 192 514 192 q 680 240 636 192 q 741 372 725 288 q 732 504 758 456 m 474 97 q 387 146 448 146 q 281 97 326 146 q 220 -33 236 49 q 230 -165 204 -117 q 317 -214 256 -214 q 423 -165 378 -214 q 484 -33 467 -117 q 474 97 500 49 m 833 97 q 745 146 807 146 q 640 97 684 146 q 579 -33 595 49 q 588 -165 562 -117 q 676 -214 615 -214 q 781 -165 737 -214 q 842 -33 826 -117 q 833 97 859 49 m 1019 626 q 1159 556 1114 626 q 1181 371 1203 487 q 1087 187 1158 256 q 920 118 1015 118 l 917 118 q 923 -34 940 55 q 829 -219 900 -150 q 661 -288 758 -288 q 520 -220 564 -288 q 502 -182 509 -201 q 471 -218 488 -201 q 303 -288 400 -288 q 162 -219 206 -288 q 141 -34 118 -151 q 204 118 158 55 q 202 118 203 118 q 61 186 105 118 q 39 371 16 255 q 133 556 61 487 q 301 626 204 626 l 303 626 q 298 777 280 687 q 391 962 320 893 q 559 1032 462 1032 q 701 963 656 1032 q 718 926 711 945 q 750 963 731 945 q 917 1032 821 1032 q 1058 962 1014 1032 q 1081 777 1103 893 q 1016 626 1063 687 l 1019 626 m 574 421 l 665 421 l 644 316 l 554 316 l 574 421 "},"Ᵽ":{"x_min":36.625,"x_max":837.765625,"ha":838,"o":"m 234 1013 l 543 1013 q 786 936 714 1013 q 829 710 858 858 q 697 483 800 560 q 426 407 596 407 l 254 407 l 174 0 l 37 0 l 166 661 l 36 661 l 55 759 l 185 759 l 234 1013 m 303 661 l 276 520 l 448 520 q 605 569 543 520 q 684 710 667 618 q 660 850 702 801 q 522 900 617 900 l 349 900 l 322 759 l 557 759 l 538 661 l 303 661 "},"Ꙭ":{"x_min":63.078125,"x_max":1822.953125,"ha":1886,"o":"m 484 568 l 627 568 l 594 396 l 450 396 l 484 568 m 1277 568 l 1420 568 l 1386 396 l 1243 396 l 1277 568 m 649 1031 q 962 888 862 1031 q 1003 811 986 852 q 1072 888 1034 852 q 1442 1031 1228 1031 q 1755 888 1655 1031 q 1808 505 1854 745 q 1605 122 1761 265 q 1237 -20 1450 -20 q 923 122 1024 -20 q 882 199 899 157 q 813 122 851 158 q 444 -20 657 -20 q 131 122 231 -20 q 77 505 31 264 q 280 888 124 745 q 649 1031 436 1031 m 842 808 q 627 920 777 920 q 369 808 478 920 q 222 505 259 697 q 251 202 185 313 q 466 91 317 91 q 724 202 615 91 q 870 505 833 313 q 842 808 908 697 m 1635 808 q 1420 920 1569 920 q 1162 808 1271 920 q 1015 505 1052 697 q 1044 202 977 313 q 1259 91 1110 91 q 1517 202 1408 91 q 1663 505 1626 313 q 1635 808 1700 697 "},"Ꙫ":{"x_min":64.25,"x_max":1123.890625,"ha":1188,"o":"m 392 568 l 535 568 l 502 396 l 359 396 l 392 568 m 677 568 l 820 568 l 787 396 l 644 396 l 677 568 m 895 122 q 491 -20 726 -20 q 143 122 257 -20 q 77 505 31 264 q 292 888 124 745 q 696 1031 461 1031 q 1044 888 931 1031 q 1110 505 1156 745 q 895 122 1063 264 m 914 808 q 674 920 838 920 q 389 808 509 920 q 233 505 270 697 q 271 202 195 313 q 512 91 347 91 q 796 202 677 91 q 953 505 916 313 q 914 808 990 697 "},"^":{"x_min":147.15625,"x_max":1016.578125,"ha":1164,"o":"m 648 1013 l 1016 635 l 880 635 l 581 903 l 283 635 l 147 635 l 515 1013 l 648 1013 "},"D":{"x_min":37.734375,"x_max":1003,"ha":1069,"o":"m 235 1013 l 529 1013 q 883 913 763 1013 q 1003 618 1003 814 q 957 368 1003 488 q 832 166 912 249 q 627 41 751 82 q 333 0 503 0 l 37 0 l 235 1013 m 350 900 l 197 113 l 376 113 q 732 245 606 113 q 859 618 859 377 q 777 831 859 763 q 522 900 696 900 l 350 900 "},"ꙥ":{"x_min":-22.375,"x_max":1256.640625,"ha":1251,"o":"m -22 0 l -2 103 q 179 208 128 123 q 308 635 246 318 l 332 760 l 1256 760 l 1236 660 l 826 660 l 698 0 l 573 0 l 573 0 l 701 660 l 438 660 l 423 584 q 278 156 368 295 q -22 0 190 19 "},"w":{"x_min":144,"x_max":1137.046875,"ha":1136,"o":"m 144 760 l 257 760 l 257 148 l 556 760 l 722 760 l 722 148 l 1012 760 l 1137 760 l 789 0 l 625 0 l 625 629 l 316 0 l 144 0 l 144 760 "},"$":{"x_min":46.171875,"x_max":791.5,"ha":884,"o":"m 407 100 q 556 144 501 100 q 611 258 611 188 q 576 347 611 315 q 464 391 541 378 l 407 100 m 474 800 q 334 747 385 790 q 284 636 284 703 q 316 561 284 588 q 421 522 348 535 l 474 800 m 791 855 l 768 733 q 653 781 710 764 q 543 799 596 799 l 486 509 q 676 431 611 490 q 742 280 742 372 q 645 82 742 160 q 387 4 548 4 l 347 -204 l 279 -204 l 319 0 q 171 16 241 0 q 46 61 102 32 l 69 186 q 199 120 131 144 q 339 97 267 97 l 399 405 q 212 481 271 429 q 154 618 154 532 q 247 811 154 732 q 493 890 340 890 l 525 1055 l 592 1055 l 562 896 q 681 885 623 896 q 791 855 739 874 "},"Ꙩ":{"x_min":56,"x_max":1038,"ha":1094,"o":"m 633 920 q 435 865 521 920 q 285 698 349 810 q 223 547 244 627 q 202 385 202 467 q 269 167 202 244 q 460 91 336 91 q 658 146 571 91 q 807 310 745 201 q 870 464 848 384 q 892 625 892 545 q 824 842 892 765 q 633 920 756 920 m 456 -20 q 162 90 269 -20 q 56 393 56 201 q 97 617 56 503 q 212 822 139 732 q 404 979 298 927 q 637 1031 510 1031 q 930 921 823 1031 q 1038 622 1038 811 q 997 393 1038 505 q 880 188 956 280 q 689 31 793 83 q 456 -20 584 -20 m 485 568 l 628 568 l 594 396 l 451 396 l 485 568 "},"\\":{"x_min":118,"x_max":364.171875,"ha":468,"o":"m 233 1013 l 364 -129 l 250 -129 l 118 1013 l 233 1013 "},"ꙗ":{"x_min":57.15625,"x_max":1085,"ha":1177,"o":"m 936 381 l 811 381 q 584 340 658 381 q 510 213 510 299 q 548 119 510 153 q 652 85 586 85 q 830 158 754 85 q 930 353 906 231 l 936 381 m 1071 432 l 986 0 l 861 0 l 884 114 q 759 13 829 47 q 603 -20 689 -20 q 444 39 506 -20 q 382 191 382 98 q 436 353 382 286 l 251 353 l 181 0 l 57 0 l 205 759 l 329 759 l 270 456 l 601 456 q 780 479 679 479 l 954 479 l 961 512 q 963 524 962 517 q 964 544 964 530 q 914 638 964 604 q 776 672 865 672 q 651 656 715 672 q 519 609 587 640 l 541 724 q 679 764 611 751 q 810 777 747 777 q 1014 719 944 777 q 1085 549 1085 661 q 1081 497 1085 527 q 1071 432 1078 468 "},"ꜩ":{"x_min":100.375,"x_max":925.015625,"ha":985,"o":"m 561 323 q 712 284 632 323 q 817 182 774 255 q 840 18 859 111 q 692 -213 811 -131 q 383 -296 573 -296 q 254 -283 320 -296 q 122 -245 189 -270 l 148 -113 q 263 -163 199 -146 q 402 -181 328 -181 q 607 -130 531 -181 q 704 18 685 -79 q 669 158 722 107 q 503 209 617 209 l 385 209 l 408 321 l 765 660 l 316 660 l 236 249 q 239 130 219 156 q 337 104 259 104 l 465 104 l 445 0 l 317 0 q 128 53 172 0 q 111 250 84 107 l 191 662 l 100 662 l 118 759 l 210 759 l 252 975 l 377 975 l 335 760 l 925 760 l 903 645 l 561 323 "},"-":{"x_min":62.390625,"x_max":450.296875,"ha":501,"o":"m 84 436 l 450 436 l 429 325 l 62 325 l 84 436 "},"ꜧ":{"x_min":51.546875,"x_max":788.53125,"ha":880,"o":"m 651 454 q 640 615 672 561 q 524 669 609 669 q 352 604 423 669 q 260 429 282 540 l 177 0 l 51 0 l 257 1055 l 382 1055 l 301 641 q 427 743 360 709 q 573 778 494 778 q 756 696 704 778 q 777 458 807 615 l 684 -13 q 588 -223 657 -158 q 398 -289 520 -289 l 350 -289 l 371 -183 l 404 -183 q 507 -150 479 -183 q 560 -13 541 -112 l 651 454 "},"ꙑ":{"x_min":96.09375,"x_max":1201.875,"ha":1259,"o":"m 1077 760 l 1201 760 l 1053 0 l 928 0 l 1077 760 m 610 450 q 875 277 875 450 q 869 225 875 253 q 523 0 825 0 l 214 0 l 342 660 l 96 660 l 115 760 l 487 760 l 427 450 l 610 450 m 739 252 q 585 350 739 350 l 407 350 l 359 100 l 537 100 q 736 225 711 100 q 739 252 739 239 "},"Q":{"x_min":57,"x_max":1038,"ha":1094,"o":"m 501 -18 q 485 -20 493 -20 q 461 -20 477 -20 q 164 88 271 -20 q 57 389 57 197 q 97 617 57 503 q 211 822 138 731 q 402 978 296 926 q 637 1031 509 1031 q 930 921 823 1031 q 1038 622 1038 811 q 925 248 1038 418 q 633 9 813 78 l 771 -178 l 617 -178 l 501 -18 m 633 920 q 434 865 520 920 q 284 698 348 810 q 222 547 243 627 q 201 385 201 467 q 268 167 201 244 q 459 91 336 91 q 658 146 570 91 q 807 310 745 201 q 870 464 848 384 q 892 625 892 545 q 824 842 892 765 q 633 920 756 920 "},"ꜻ":{"x_min":46.859375,"x_max":1168.484375,"ha":1136,"o":"m 526 0 l 548 114 q 422 12 493 45 q 260 -20 352 -20 q 87 45 143 -20 q 52 220 31 110 q 175 413 77 348 q 444 479 274 479 l 619 479 l 621 491 q 591 624 638 577 q 441 672 543 672 q 311 656 376 672 q 183 609 246 640 l 206 724 q 346 764 280 751 q 474 777 413 777 q 704 692 639 777 q 742 479 760 618 l 877 479 l 1036 759 l 1168 759 l 1009 479 l 1114 479 l 1095 381 l 953 381 l 735 0 l 526 0 m 476 381 q 260 346 325 381 q 179 228 195 311 q 202 122 166 161 q 314 84 238 84 q 494 157 417 84 q 595 353 571 231 l 600 381 l 476 381 m 821 381 l 725 381 l 674 121 l 821 381 "},"M":{"x_min":37.296875,"x_max":1161.03125,"ha":1198,"o":"m 234 1013 l 440 1013 l 558 330 l 950 1013 l 1161 1013 l 963 0 l 830 0 l 1003 888 l 605 195 l 472 195 l 343 890 l 170 0 l 37 0 l 234 1013 "},"C":{"x_min":58,"x_max":964.265625,"ha":969,"o":"m 964 934 l 936 790 q 798 888 871 856 q 640 920 725 920 q 436 864 524 920 q 285 694 349 808 q 223 539 244 621 q 202 374 202 457 q 273 163 202 236 q 481 91 345 91 q 662 121 575 91 q 831 211 749 151 l 799 49 q 636 -2 718 15 q 471 -20 554 -20 q 167 85 276 -20 q 58 380 58 191 q 99 617 58 501 q 218 831 141 734 q 407 982 301 933 q 655 1031 513 1031 q 819 1006 741 1031 q 964 934 897 982 "},"Ꜩ":{"x_min":100.375,"x_max":1155.59375,"ha":1219,"o":"m 122 1012 l 979 1012 l 956 897 l 597 897 l 571 759 l 1155 759 l 1135 654 l 792 323 q 943 284 863 323 q 1048 182 1005 255 q 1071 18 1089 111 q 922 -213 1042 -131 q 614 -296 804 -296 q 450 -283 536 -296 q 282 -245 365 -270 l 307 -113 q 455 -164 373 -147 q 631 -181 538 -181 q 838 -130 761 -181 q 935 18 916 -79 q 899 158 952 109 q 734 209 846 209 l 616 209 l 636 312 l 962 644 l 548 644 l 423 0 l 285 0 l 459 897 l 100 897 l 122 1012 "},"ꚋ":{"x_min":94.9375,"x_max":888.8125,"ha":1002,"o":"m 114 760 l 842 760 l 822 660 l 520 660 l 475 428 l 645 428 q 861 379 823 428 q 876 169 906 322 l 840 -13 q 744 -223 812 -158 q 554 -289 676 -289 l 423 -289 l 444 -183 l 560 -183 q 663 -150 635 -183 q 716 -13 696 -114 l 751 165 q 752 302 773 275 q 633 330 729 330 l 456 330 l 391 0 l 269 0 l 397 660 l 94 660 l 114 760 "},"!":{"x_min":109.859375,"x_max":444.203125,"ha":557,"o":"m 307 1013 l 444 1013 l 358 568 l 297 326 l 187 326 l 221 568 l 307 1013 m 144 172 l 282 172 l 248 0 l 109 0 l 144 172 "},"{":{"x_min":167.6875,"x_max":840.078125,"ha":883,"o":"m 840 1055 l 820 958 l 768 958 q 644 931 675 958 q 591 802 612 904 l 556 632 q 493 474 534 523 q 377 410 452 425 q 454 363 426 398 q 482 277 482 328 q 479 239 482 261 q 471 191 476 216 l 439 25 q 434 -13 436 4 q 432 -47 432 -31 q 461 -109 432 -90 q 556 -129 490 -129 l 609 -129 l 589 -227 l 541 -227 q 358 -189 413 -227 q 304 -69 304 -152 q 306 -24 304 -47 q 313 23 308 -1 l 344 182 q 345 191 344 184 q 352 255 352 224 q 318 338 352 313 q 209 364 285 364 l 167 364 l 186 464 l 228 464 q 369 500 326 464 q 434 640 412 537 l 466 805 q 508 937 483 888 q 569 1012 532 985 q 647 1045 600 1035 q 784 1055 694 1055 l 840 1055 "},"X":{"x_min":-59.671875,"x_max":976.5625,"ha":951,"o":"m 190 1013 l 328 1013 l 502 647 l 816 1013 l 976 1013 l 559 529 l 811 0 l 673 0 l 469 426 l 99 0 l -59 0 l 413 544 l 190 1013 "},"#":{"x_min":96.984375,"x_max":1073.546875,"ha":1164,"o":"m 608 997 l 537 716 l 735 716 l 807 997 l 915 997 l 845 716 l 1073 716 l 1047 612 l 819 612 l 763 385 l 994 385 l 969 281 l 737 281 l 666 0 l 558 0 l 627 281 l 429 281 l 359 0 l 250 0 l 320 281 l 96 281 l 122 385 l 345 385 l 402 612 l 174 612 l 201 716 l 429 716 l 498 997 l 608 997 m 710 612 l 512 612 l 455 385 l 654 385 l 710 612 "},"ꞌ":{"x_min":96.984375,"x_max":285.515625,"ha":382,"o":"m 285 1012 l 212 636 l 96 636 l 170 1012 l 285 1012 "},"Ⱡ":{"x_min":-18.3125,"x_max":690.375,"ha":774,"o":"m 234 1012 l 371 1012 l 305 670 l 540 670 l 521 572 l 286 572 l 267 475 l 502 475 l 483 377 l 248 377 l 197 115 l 690 115 l 668 0 l 37 0 l 111 377 l -18 377 l 0 475 l 130 475 l 149 572 l 19 572 l 38 670 l 168 670 l 234 1012 "},"Ꜫ":{"x_min":160.90625,"x_max":939.265625,"ha":853,"o":"m 425 545 q 305 626 341 567 q 284 768 267 683 q 412 960 307 889 q 672 1031 516 1031 q 799 1020 733 1031 q 939 987 865 1009 l 915 865 q 781 903 842 891 q 662 916 718 916 q 496 873 559 916 q 417 754 433 832 q 448 637 402 677 q 595 597 494 597 l 718 597 l 697 484 l 579 484 q 394 433 467 484 q 304 293 322 383 q 343 145 286 196 q 529 95 400 95 q 674 111 603 95 q 809 162 745 128 l 783 30 q 636 -7 707 5 q 503 -20 566 -20 q 226 61 313 -20 q 168 293 139 143 q 255 457 187 391 q 425 545 323 524 "},"Ⱪ":{"x_min":59,"x_max":1023.359375,"ha":911,"o":"m 770 115 l 885 115 l 820 -218 l 686 -218 l 729 0 l 682 0 l 290 487 l 195 0 l 59 0 l 255 1012 l 392 1012 l 309 584 l 847 1012 l 1023 1012 l 429 540 l 770 115 "},")":{"x_min":-85.71875,"x_max":401,"ha":543,"o":"m -85 -183 q 182 243 94 41 q 271 632 271 445 q 245 844 271 739 q 168 1054 220 950 l 277 1054 q 370 827 339 936 q 401 612 401 718 q 306 211 401 410 q 25 -183 212 12 l -85 -183 "},"ꜿ":{"x_min":3.640625,"x_max":685,"ha":764,"o":"m 3 27 l 28 151 q 124 102 73 118 q 228 85 174 85 q 342 106 288 85 q 432 166 396 127 q 523 305 491 225 q 555 469 555 384 q 503 621 555 571 q 348 672 452 672 q 238 656 296 672 q 117 609 180 640 l 141 733 q 252 766 195 755 q 370 777 310 777 q 603 702 522 777 q 685 486 685 626 q 642 268 685 368 q 516 89 600 169 q 383 7 459 35 q 215 -20 306 -20 q 110 -8 162 -20 q 3 27 57 3 m 272 484 l 415 484 l 381 312 l 238 312 l 272 484 "},"Ꙕ":{"x_min":63,"x_max":1454.859375,"ha":1500,"o":"m 842 808 q 627 920 776 920 q 368 808 477 920 q 222 505 259 697 q 209 376 209 435 q 251 202 209 273 q 465 91 316 91 q 724 202 614 91 q 871 505 834 313 q 885 632 885 574 q 842 808 885 737 m 1024 563 l 1231 563 l 1317 1012 l 1454 1012 l 1258 0 l 1121 0 l 1208 448 l 1002 448 q 806 118 955 257 q 443 -20 657 -20 q 130 123 230 -20 q 63 362 63 220 q 77 505 63 428 q 280 888 124 745 q 648 1031 435 1031 q 957 892 862 1031 q 1031 645 1031 784 q 1024 563 1031 605 "},"}":{"x_min":9.25,"x_max":682.3125,"ha":884,"o":"m 9 -227 l 28 -129 l 81 -129 q 205 -102 174 -129 q 258 26 237 -75 l 292 196 q 355 354 315 305 q 471 417 396 403 q 395 464 422 430 q 368 551 368 499 q 370 589 368 568 q 377 637 372 611 l 409 802 q 415 842 415 825 q 415 875 415 858 q 386 938 415 919 q 292 958 358 958 l 239 958 l 258 1055 l 308 1055 q 490 1018 435 1055 q 546 898 546 981 q 543 854 546 877 q 535 804 541 831 l 505 645 q 503 637 505 643 q 496 573 496 604 q 530 490 496 515 q 640 465 563 465 l 682 465 l 662 365 l 620 365 q 480 327 522 365 q 417 188 437 290 l 381 23 q 340 -109 364 -62 q 280 -183 316 -157 q 201 -216 248 -206 q 64 -227 155 -227 l 9 -227 "},"ꜰ":{"x_min":52.21875,"x_max":680.203125,"ha":682,"o":"m 200 760 l 680 760 l 660 660 l 306 660 l 267 455 l 585 455 l 565 355 l 247 355 l 178 0 l 52 0 l 200 760 "},"Ꙥ":{"x_min":-41.375,"x_max":1498.75,"ha":1408,"o":"m -41 0 l -18 114 q 198 258 137 147 q 370 840 290 427 l 403 1012 l 1498 1012 l 1476 897 l 983 897 l 809 0 l 672 0 l 846 897 l 517 897 l 493 772 q 316 212 417 386 q -41 0 214 37 "},"a":{"x_min":57,"x_max":760,"ha":852,"o":"m 746 432 l 661 0 l 536 0 l 559 114 q 434 13 504 46 q 278 -20 364 -20 q 119 39 181 -20 q 57 191 57 98 q 163 401 57 324 q 455 479 269 479 l 629 479 l 636 512 q 638 524 637 517 q 639 544 639 530 q 589 638 639 604 q 451 672 540 672 q 326 656 390 672 q 194 609 262 640 l 216 724 q 354 764 286 751 q 485 777 422 777 q 689 719 619 777 q 760 549 760 661 q 756 497 760 527 q 746 432 753 466 m 611 381 l 486 381 q 259 340 333 381 q 185 213 185 299 q 223 119 185 153 q 327 85 261 85 q 505 158 429 85 q 605 353 581 231 l 611 381 "},"=":{"x_min":147,"x_max":1016,"ha":1163,"o":"m 147 631 l 1016 631 l 1016 517 l 147 517 l 147 631 m 147 354 l 1016 354 l 1016 239 l 147 239 l 147 354 "},"N":{"x_min":37.296875,"x_max":1001.65625,"ha":1039,"o":"m 234 1013 l 419 1013 l 698 144 l 868 1013 l 1001 1013 l 804 0 l 619 0 l 340 873 l 170 0 l 37 0 l 234 1013 "},"ꙕ":{"x_min":64,"x_max":1112.203125,"ha":1169,"o":"m 481 672 q 308 592 381 672 q 208 378 234 513 q 198 283 198 327 q 225 164 198 213 q 367 85 267 85 q 542 164 468 85 q 641 378 615 242 q 652 474 652 430 q 625 593 652 545 q 481 672 582 672 m 783 456 q 928 456 783 456 l 987 759 l 1112 759 l 964 0 l 839 0 l 908 353 l 767 353 q 619 82 728 184 q 347 -20 510 -20 q 112 86 184 -20 q 64 263 64 157 q 76 378 64 317 q 226 671 112 566 q 501 777 339 777 q 730 681 664 777 q 786 495 786 599 q 783 456 786 476 "},"2":{"x_min":5.34375,"x_max":797,"ha":883,"o":"m 640 488 l 202 114 l 686 114 l 662 0 l 5 0 l 27 115 l 484 507 q 614 646 576 586 q 653 769 653 706 q 606 876 653 835 q 486 918 560 918 q 343 894 421 918 q 174 827 264 871 l 199 963 q 360 1013 284 996 q 502 1031 437 1031 q 716 960 635 1031 q 797 775 797 889 q 758 627 797 697 q 640 488 719 557 "},"Z":{"x_min":-30.515625,"x_max":976.5625,"ha":951,"o":"m 181 1013 l 976 1013 l 956 908 l 172 115 l 817 115 l 796 0 l -30 0 l -10 104 l 773 898 l 160 898 l 181 1013 "},"u":{"x_min":79,"x_max":817.390625,"ha":880,"o":"m 92 301 l 181 759 l 306 759 l 217 306 q 208 249 211 272 q 205 209 205 225 q 240 120 205 152 q 339 89 275 89 q 513 156 440 89 q 609 339 586 224 l 692 759 l 817 759 l 670 0 l 545 0 l 570 119 q 444 16 517 53 q 289 -20 371 -20 q 134 34 190 -20 q 79 187 79 89 q 82 238 79 207 q 92 301 85 268 "},"ⱺ":{"x_min":64.796875,"x_max":786.21875,"ha":850,"o":"m 499 193 q 482 271 508 239 q 411 304 457 304 q 327 272 365 304 q 281 194 290 240 q 298 117 272 148 q 369 85 323 85 q 453 117 415 85 q 499 193 491 148 m 76 379 q 226 671 113 566 q 502 777 339 777 q 737 671 665 777 q 774 379 810 566 q 624 86 737 192 q 347 -20 510 -20 q 112 86 184 -20 q 76 379 40 192 m 641 379 q 625 593 668 514 q 482 672 582 672 q 309 593 382 672 q 209 379 236 515 q 197 261 197 314 q 268 348 223 310 q 433 411 342 411 q 573 346 525 411 q 607 267 601 312 q 641 379 629 317 "},"k":{"x_min":48.828125,"x_max":849.75,"ha":804,"o":"m 254 1055 l 379 1055 l 259 439 l 687 759 l 849 759 l 372 395 l 720 -1 l 569 -1 l 245 370 l 173 0 l 48 0 l 254 1055 "},"Ꝋ":{"x_min":0.671875,"x_max":1126.4375,"ha":1120,"o":"m 663 1031 q 975 888 876 1031 q 1038 572 1061 765 l 1126 572 l 1107 474 l 1022 474 q 826 122 972 255 q 458 -20 671 -20 q 145 122 244 -20 q 86 474 51 255 l 0 474 l 19 572 l 107 572 q 293 888 160 765 q 663 1031 449 1031 m 855 808 q 641 920 790 920 q 382 808 492 920 q 251 572 292 717 l 894 572 q 855 808 909 717 m 877 474 l 230 474 q 265 202 204 304 q 480 91 330 91 q 738 202 629 91 q 877 474 838 304 "},"Ⱶ":{"x_min":37.984375,"x_max":788.703125,"ha":909,"o":"m 766 482 l 268 482 l 174 0 l 37 0 l 234 1012 l 371 1012 l 290 597 l 788 597 l 766 482 "},"s":{"x_min":15.234375,"x_max":694.328125,"ha":723,"o":"m 694 736 l 670 618 q 566 659 621 645 q 452 673 511 673 q 297 639 354 673 q 241 548 241 605 q 372 445 241 480 q 387 440 382 442 l 427 428 q 594 356 552 394 q 636 252 636 318 q 540 55 636 131 q 288 -20 444 -20 q 161 -8 228 -20 q 15 27 95 2 l 39 155 q 174 102 108 120 q 301 84 240 84 q 450 123 393 84 q 508 223 508 162 q 357 328 508 288 l 344 331 l 301 342 q 163 408 207 367 q 119 513 119 449 q 210 705 119 634 q 458 777 301 777 q 578 766 519 777 q 694 736 637 756 "},"B":{"x_min":37.515625,"x_max":868,"ha":953,"o":"m 234 1013 l 584 1013 q 797 960 727 1013 q 868 800 868 907 q 807 632 868 702 q 648 546 746 561 q 774 473 732 527 q 817 330 817 420 q 704 88 817 177 q 395 0 591 0 l 37 0 l 234 1013 m 268 484 l 196 113 l 416 113 q 607 169 540 113 q 675 330 675 226 q 630 447 675 410 q 487 484 586 484 l 268 484 m 348 900 l 289 595 l 493 595 q 663 642 602 595 q 725 773 725 689 q 683 869 725 839 q 551 900 642 900 l 348 900 "},"?":{"x_min":170.59375,"x_max":710,"ha":737,"o":"m 345 172 l 312 0 l 174 0 l 207 172 l 345 172 m 195 954 q 333 1012 264 993 q 474 1031 402 1031 q 646 980 583 1031 q 710 841 710 929 q 673 710 710 771 q 555 583 637 649 l 484 526 q 408 449 427 481 q 377 355 389 417 l 360 272 l 231 272 l 252 376 q 291 484 264 440 q 393 591 317 529 l 464 651 q 544 735 521 699 q 568 810 568 771 q 531 890 568 861 q 428 920 494 920 q 307 895 374 920 q 170 827 241 871 l 195 954 "},"H":{"x_min":37.296875,"x_max":1007.078125,"ha":1044,"o":"m 234 1012 l 372 1012 l 291 597 l 788 597 l 869 1012 l 1007 1012 l 809 0 l 672 0 l 766 482 l 269 482 l 174 0 l 37 0 l 234 1012 "},"ꜷ":{"x_min":57,"x_max":1320.84375,"ha":1383,"o":"m 588 124 q 573 101 582 111 q 278 -20 474 -20 q 119 39 181 -20 q 57 191 57 98 q 163 401 57 324 q 455 479 269 479 l 629 479 l 636 512 q 639 544 639 525 q 589 638 639 604 q 451 672 540 672 q 326 656 390 672 q 194 609 262 640 l 216 724 q 354 764 286 751 q 485 777 422 777 q 689 719 619 777 q 760 549 760 661 q 746 432 760 502 l 716 283 q 708 209 708 239 q 743 120 708 151 q 843 89 778 89 q 1016 156 943 89 q 1112 338 1089 223 l 1196 759 l 1320 759 l 1173 0 l 1048 0 l 1074 119 q 948 16 1021 52 q 784 -20 875 -20 q 637 35 693 -20 q 588 124 601 70 m 611 381 l 486 381 q 259 340 333 381 q 185 213 185 299 q 223 119 185 153 q 327 85 261 85 q 505 158 429 85 q 605 353 581 231 l 611 381 "},"c":{"x_min":64,"x_max":745.34375,"ha":764,"o":"m 745 730 l 720 606 q 624 655 675 639 q 520 672 574 672 q 406 650 460 672 q 316 591 352 629 q 225 452 257 532 q 194 288 194 373 q 245 136 194 186 q 400 85 296 85 q 510 101 452 85 q 631 148 568 117 l 607 24 q 496 -8 553 2 q 378 -20 438 -20 q 145 55 226 -20 q 64 271 64 131 q 106 489 64 389 q 232 667 148 588 q 366 749 289 722 q 533 777 442 777 q 638 765 586 777 q 745 730 691 754 "},"(":{"x_min":107,"x_max":592.578125,"ha":542,"o":"m 592 1054 q 324 627 412 829 q 235 238 235 426 q 261 26 235 131 q 338 -183 287 -79 l 230 -183 q 137 43 168 -66 q 107 259 107 154 q 200 658 107 461 q 482 1054 293 856 l 592 1054 "},"U":{"x_min":81,"x_max":990.390625,"ha":1017,"o":"m 215 1012 l 352 1012 l 233 396 q 223 328 226 355 q 220 281 220 301 q 272 139 220 188 q 425 91 324 91 q 629 162 556 91 q 733 396 702 234 l 852 1012 l 990 1012 l 868 380 q 716 77 828 175 q 409 -20 604 -20 q 169 56 258 -20 q 81 263 81 132 q 84 316 81 287 q 94 380 87 346 l 215 1012 "},"Ꝉ":{"x_min":71.890625,"x_max":724.28125,"ha":808,"o":"m 268 1012 l 405 1012 l 376 861 l 490 861 l 468 750 l 354 750 l 231 115 l 724 115 l 701 0 l 71 0 l 217 750 l 103 750 l 125 861 l 239 861 l 268 1012 "},"F":{"x_min":37.296875,"x_max":815.15625,"ha":799,"o":"m 234 1013 l 815 1013 l 792 898 l 348 898 l 290 599 l 691 599 l 669 484 l 267 484 l 173 0 l 37 0 l 234 1013 "},"ꜽ":{"x_min":72.921875,"x_max":1194.9375,"ha":1136,"o":"m 552 0 l 575 115 q 448 13 518 46 q 286 -19 378 -19 q 113 46 169 -19 q 78 221 57 111 q 202 414 103 349 q 470 480 300 480 l 645 480 l 648 492 q 617 625 665 578 q 467 672 570 672 q 338 656 402 672 q 210 609 273 641 l 232 725 q 372 764 305 751 q 501 778 440 778 q 730 692 665 778 q 761 433 795 607 l 710 167 l 1062 760 l 1194 760 l 699 -70 q 562 -247 620 -206 q 419 -289 503 -289 l 320 -289 l 340 -185 l 413 -185 q 498 -160 465 -185 q 583 -44 531 -135 l 610 0 l 552 0 m 502 382 q 286 347 351 382 q 205 229 221 312 q 228 123 192 162 q 339 85 264 85 q 520 158 443 85 q 621 354 597 232 l 626 382 l 502 382 "},"ⱳ":{"x_min":231,"x_max":1448.671875,"ha":1336,"o":"m 1035 613 q 1108 712 1061 671 q 1272 778 1183 778 q 1411 713 1361 778 q 1444 557 1461 648 l 1429 480 l 1308 480 l 1323 557 q 1308 625 1330 597 q 1248 654 1286 654 q 1176 625 1209 654 q 1149 594 1156 608 l 879 0 l 710 0 l 710 622 l 403 0 l 231 0 l 231 760 l 351 760 l 351 166 l 642 760 l 810 760 l 810 166 l 1035 613 "},":":{"x_min":71.890625,"x_max":355.359375,"ha":468,"o":"m 212 718 l 355 718 l 322 546 l 179 546 l 212 718 m 105 172 l 248 172 l 214 0 l 71 0 l 105 172 "},"Ꙍ":{"x_min":49,"x_max":1557,"ha":1638,"o":"m 1540 345 q 1421 87 1508 181 q 1162 -20 1321 -20 q 1035 26 1100 -20 q 921 112 977 69 q 765 159 847 159 q 591 112 683 159 l 442 26 q 297 -20 359 -20 q 80 86 138 -20 q 49 228 49 144 q 61 344 49 281 q 163 632 87 478 q 337 895 242 792 l 506 895 q 313 657 406 822 q 201 381 225 504 q 193 301 193 337 q 331 160 193 160 q 496 196 425 160 q 612 266 554 231 q 794 303 687 303 q 960 266 899 303 q 1048 196 1004 231 q 1197 160 1103 160 q 1414 381 1370 160 q 1425 501 1425 438 q 1410 657 1425 575 q 1309 895 1380 822 l 1478 895 q 1550 632 1534 792 q 1557 519 1557 574 q 1540 345 1557 428 "},"*":{"x_min":41.8125,"x_max":653.203125,"ha":695,"o":"m 653 845 l 409 714 l 653 581 l 613 515 l 386 652 l 386 397 l 309 397 l 309 652 l 81 515 l 41 581 l 285 714 l 41 845 l 81 912 l 309 775 l 309 1031 l 386 1031 l 386 775 l 613 912 l 653 845 "},"ꟾ":{"x_min":10.84375,"x_max":398.765625,"ha":410,"o":"m 261 1289 l 398 1289 l 147 0 l 10 0 l 261 1289 "},"ⱦ":{"x_min":-139.703125,"x_max":656.46875,"ha":545,"o":"m 345 974 l 303 759 l 336 759 l 541 1142 l 656 1142 l 451 760 l 560 760 l 541 663 l 400 663 l 219 325 l 204 250 q 206 130 186 156 q 305 104 227 104 l 433 104 l 413 0 l 284 0 q 95 54 140 0 q 83 72 88 62 l -24 -129 l -139 -129 l 88 295 l 159 663 l 67 663 l 86 760 l 178 760 l 219 974 l 345 974 "},"V":{"x_min":108.5,"x_max":1030.8125,"ha":950,"o":"m 286 0 l 108 1013 l 242 1013 l 389 141 l 881 1013 l 1030 1013 l 445 0 l 286 0 "},"ꟼ":{"x_min":78.453125,"x_max":799.5625,"ha":838,"o":"m 640 900 l 468 900 q 310 850 373 900 q 231 710 248 801 q 256 569 213 618 q 394 520 299 520 l 566 520 l 640 900 m 799 1013 l 602 0 l 465 0 l 545 407 l 373 407 q 130 483 202 407 q 86 710 57 560 q 218 935 115 858 q 490 1013 320 1013 l 799 1013 "},"0":{"x_min":69,"x_max":814,"ha":884,"o":"m 530 1031 q 741 939 668 1031 q 814 676 814 847 q 779 417 814 545 q 683 186 745 288 q 535 32 620 85 q 347 -20 450 -20 q 141 72 214 -20 q 69 334 69 164 q 103 593 69 463 q 201 823 138 722 q 347 978 263 925 q 530 1031 431 1031 m 522 922 q 424 894 470 922 q 340 813 377 867 q 240 590 277 724 q 204 315 204 456 q 243 146 204 203 q 360 89 283 89 q 461 116 415 89 q 544 197 507 143 q 642 420 606 286 q 679 695 679 553 q 639 864 679 807 q 522 922 599 922 "},"Ꞁ":{"x_min":83.421875,"x_max":735.8125,"ha":774,"o":"m 539 0 l 402 0 l 576 897 l 83 897 l 105 1012 l 735 1012 l 539 0 "},"Ɐ":{"x_min":207.515625,"x_max":1135.25,"ha":950,"o":"m 501 135 l 784 639 l 412 639 l 501 135 m 552 0 l 396 0 l 207 1013 l 349 1013 l 391 753 l 848 753 l 990 1013 l 1135 1013 l 552 0 "},"@":{"x_min":81,"x_max":1320,"ha":1389,"o":"m 850 162 q 748 85 803 111 q 634 60 693 60 q 469 127 535 60 q 404 297 404 194 q 504 558 404 446 q 740 670 605 670 q 852 642 803 670 q 928 567 901 615 l 946 656 l 1043 656 l 946 156 q 1143 278 1066 175 q 1221 522 1221 381 q 1109 780 1221 680 q 819 881 997 881 q 585 838 698 881 q 387 718 473 796 q 233 508 288 627 q 179 264 179 389 q 297 -28 179 87 q 599 -144 415 -144 q 771 -114 686 -144 q 949 -22 856 -85 l 1004 -99 q 806 -204 913 -168 q 588 -240 700 -240 q 225 -94 370 -240 q 81 272 81 50 q 151 567 81 424 q 350 814 222 710 q 566 934 444 891 q 816 977 688 977 q 1177 848 1034 977 q 1320 526 1320 719 q 1182 192 1320 326 q 829 59 1044 59 l 850 162 m 742 574 q 579 498 646 574 q 513 317 513 422 q 551 198 513 241 q 658 156 590 156 q 820 233 755 156 q 885 422 885 310 q 846 533 885 492 q 742 574 807 574 "},"i":{"x_min":48.828125,"x_max":379.09375,"ha":386,"o":"m 254 1055 l 379 1055 l 348 897 l 223 897 l 254 1055 m 197 759 l 322 759 l 173 0 l 48 0 l 197 759 "},"ꜱ":{"x_min":15.234375,"x_max":694.328125,"ha":723,"o":"m 694 736 l 670 618 q 566 659 621 645 q 452 673 511 673 q 297 639 354 673 q 241 548 241 605 q 372 445 241 480 q 387 440 382 442 l 427 428 q 594 356 552 394 q 636 252 636 318 q 540 55 636 131 q 288 -20 444 -20 q 161 -8 228 -20 q 15 27 95 2 l 39 155 q 174 102 108 120 q 301 84 240 84 q 450 123 393 84 q 508 223 508 162 q 357 328 508 288 l 344 331 l 301 342 q 163 408 207 367 q 119 513 119 449 q 210 705 119 634 q 458 777 301 777 q 578 766 519 777 q 694 736 637 756 "},"ⱼ":{"x_min":-88.84375,"x_max":233.96875,"ha":243,"o":"m 123 425 l 202 425 l 118 -7 q 60 -125 102 -88 q -59 -162 18 -162 l -88 -162 l -77 -102 l -56 -102 q 8 -83 -11 -102 q 39 -7 27 -65 l 123 425 m 155 591 l 233 591 l 217 503 l 138 503 l 155 591 "},"]":{"x_min":-52.890625,"x_max":474.71875,"ha":542,"o":"m 474 1055 l 234 -184 l -52 -184 l -34 -87 l 127 -87 l 330 958 l 169 958 l 187 1055 l 474 1055 "},"m":{"x_min":48.96875,"x_max":1258,"ha":1353,"o":"m 1247 458 l 1158 0 l 1033 0 l 1121 454 q 1129 504 1126 483 q 1132 540 1132 525 q 1098 635 1132 601 q 1003 669 1064 669 q 841 600 912 669 q 748 423 769 532 l 665 0 l 540 0 l 629 454 q 637 500 634 479 q 640 538 640 521 q 606 634 640 600 q 512 669 572 669 q 349 600 420 669 q 257 423 278 532 l 173 0 l 48 0 l 197 759 l 322 759 l 298 641 q 417 742 349 707 q 563 778 485 778 q 699 734 646 778 q 763 613 752 690 q 895 735 820 693 q 1053 778 970 778 q 1204 721 1151 778 q 1258 562 1258 665 q 1255 512 1258 539 q 1247 458 1252 486 "},"ꙅ":{"x_min":10.4375,"x_max":662.3125,"ha":724,"o":"m 158 736 q 276 766 213 756 q 408 777 339 777 q 613 718 548 777 q 657 553 678 660 q 578 414 640 465 q 396 339 517 364 l 351 329 q 191 277 230 304 q 141 199 151 250 q 172 114 130 144 q 302 84 214 84 q 438 102 368 84 q 585 155 509 119 l 560 27 q 414 -8 482 3 q 284 -20 345 -20 q 66 41 138 -20 q 14 209 -5 103 q 99 353 33 301 q 303 434 165 405 l 348 443 q 491 490 453 466 q 537 559 528 515 q 507 644 548 615 q 373 673 466 673 q 252 659 312 673 q 135 618 193 645 l 158 736 "},"Ꞃ":{"x_min":-18.203125,"x_max":921,"ha":1021,"o":"m 339 848 q 490 985 409 939 q 674 1031 571 1031 q 886 922 828 1031 q 921 775 921 858 q 904 605 921 692 l 786 0 l 650 0 l 768 606 q 780 715 780 665 q 616 897 780 897 q 405 810 495 897 q 286 573 316 724 l 114 -289 l -18 -289 l 234 1012 l 371 1012 l 339 848 "},"Ɽ":{"x_min":64.234375,"x_max":866.703125,"ha":965,"o":"m 637 474 q 710 411 678 460 q 768 276 741 365 l 853 0 l 706 0 l 627 259 q 556 394 596 362 q 434 428 515 428 l 284 428 l 215 70 q 217 -112 189 -61 q 335 -163 244 -163 l 378 -163 l 356 -278 l 303 -278 q 96 -195 149 -278 q 78 70 42 -112 l 261 1013 l 571 1013 q 815 940 744 1013 q 858 721 887 867 q 783 562 840 625 q 637 474 727 499 m 307 541 l 479 541 q 637 586 578 541 q 714 721 697 632 q 689 854 731 809 q 549 900 648 900 l 377 900 l 307 541 "},"8":{"x_min":46,"x_max":823,"ha":883,"o":"m 618 306 q 564 431 618 383 q 423 480 510 480 q 248 416 317 480 q 180 256 180 353 q 232 134 180 179 q 374 89 285 89 q 549 150 481 89 q 618 306 618 212 m 687 778 q 639 882 687 843 q 513 922 592 922 q 360 869 420 922 q 301 738 301 817 q 348 629 301 670 q 473 588 395 588 q 626 641 566 588 q 687 778 687 695 m 594 532 q 711 444 670 503 q 753 301 753 385 q 644 70 753 161 q 364 -20 535 -20 q 132 51 218 -20 q 46 242 46 122 q 119 435 46 350 q 312 542 193 519 q 204 618 241 566 q 167 742 167 669 q 268 948 167 865 q 527 1031 370 1031 q 740 964 658 1031 q 823 793 823 897 q 761 633 823 704 q 594 532 700 563 "},"꞊":{"x_min":85.453125,"x_max":451.65625,"ha":522,"o":"m 390 223 l 85 223 l 105 325 l 410 325 l 390 223 m 431 426 l 126 426 l 146 528 l 451 528 l 431 426 "},"ⱱ":{"x_min":189.203125,"x_max":1133.0625,"ha":1020,"o":"m 834 594 q 495 0 834 594 l 326 0 l 189 760 l 321 760 l 434 122 l 719 625 q 956 778 806 778 q 1095 713 1045 778 q 1128 557 1146 648 l 1113 480 l 992 480 l 1007 557 q 993 625 1015 597 q 932 654 971 654 q 860 625 893 654 q 834 594 843 611 "},"R":{"x_min":37.28125,"x_max":833,"ha":965,"o":"m 349 900 l 280 541 l 457 541 q 624 598 560 541 q 689 747 689 655 q 645 860 689 821 q 522 900 602 900 l 349 900 m 601 486 q 673 436 644 476 q 740 276 702 396 l 826 0 l 682 0 l 602 259 q 532 394 572 360 q 409 428 492 428 l 258 428 l 174 0 l 37 0 l 234 1013 l 542 1013 q 758 949 683 1013 q 833 766 833 886 q 769 583 833 660 q 601 486 705 506 "},"ꙭ":{"x_min":64.65625,"x_max":1350.984375,"ha":1415,"o":"m 1047 672 q 873 593 946 672 q 773 378 799 515 q 789 164 746 242 q 933 85 832 85 q 1106 164 1032 85 q 1206 378 1180 243 q 1189 592 1232 513 q 1047 672 1146 672 m 482 672 q 308 593 381 672 q 208 378 234 515 q 224 164 181 242 q 368 85 267 85 q 541 164 467 85 q 641 378 615 243 q 624 592 668 513 q 482 672 581 672 m 502 777 q 737 672 665 777 q 757 637 748 655 q 790 672 773 655 q 1067 777 904 777 q 1302 671 1230 777 q 1338 378 1375 566 q 1189 86 1302 192 q 912 -20 1075 -20 q 676 86 749 -20 q 657 121 665 102 q 623 86 641 102 q 347 -20 510 -20 q 112 86 184 -20 q 76 378 40 192 q 226 671 113 566 q 502 777 339 777 m 376 484 l 519 484 l 485 312 l 342 312 l 376 484 m 941 484 l 1084 484 l 1050 312 l 907 312 l 941 484 "},"o":{"x_min":64,"x_max":786,"ha":850,"o":"m 352 -20 q 141 62 219 -20 q 64 287 64 144 q 90 455 64 370 q 160 600 117 541 q 310 734 227 690 q 497 777 392 777 q 706 697 626 777 q 786 486 786 616 q 759 306 786 395 q 690 157 733 216 q 541 23 623 66 q 352 -20 458 -20 m 194 291 q 236 137 194 188 q 367 85 279 85 q 574 195 492 85 q 657 473 657 304 q 613 621 657 571 q 483 672 569 672 q 358 639 413 672 q 260 539 303 606 q 211 424 228 488 q 194 291 194 359 "},"5":{"x_min":28.140625,"x_max":806.953125,"ha":884,"o":"m 806 1012 l 785 898 l 367 898 l 318 648 q 381 663 349 658 q 447 668 413 668 q 668 592 587 668 q 750 388 750 517 q 708 215 750 298 q 590 70 666 132 q 457 3 536 26 q 286 -20 379 -20 q 161 -9 225 -20 q 28 23 97 1 l 53 151 q 178 105 115 120 q 304 90 241 90 q 523 169 437 90 q 610 368 610 248 q 553 505 610 456 q 395 554 496 554 q 283 541 341 554 q 164 503 225 528 l 262 1012 l 806 1012 "},"Ꜳ":{"x_min":-87.484375,"x_max":1625.578125,"ha":1735,"o":"m 495 1012 l 651 1012 l 804 186 l 1281 1012 l 1436 1012 l 1625 0 l 1483 0 l 1441 260 l 984 260 l 842 0 l 840 0 l 697 0 l 655 260 l 199 260 l 56 0 l -87 0 l 495 1012 m 546 877 l 263 374 l 635 374 l 546 877 m 1331 877 l 1048 374 l 1420 374 l 1331 877 "},"7":{"x_min":128.859375,"x_max":870.765625,"ha":884,"o":"m 177 1012 l 870 1012 l 858 953 l 279 0 l 128 0 l 676 897 l 155 897 l 177 1012 "},"K":{"x_min":37.296875,"x_max":1003.015625,"ha":911,"o":"m 234 1013 l 372 1013 l 288 586 l 820 1013 l 1003 1013 l 401 529 l 841 0 l 674 0 l 270 493 l 174 0 l 37 0 l 234 1013 "},"ꟽ":{"x_min":37.984375,"x_max":1161.03125,"ha":1198,"o":"m 37 0 l 234 1013 l 367 1013 l 194 123 l 590 818 l 728 818 l 854 123 l 1027 1013 l 1161 1013 l 964 0 l 760 0 l 634 689 l 242 0 l 37 0 "},",":{"x_min":4.0625,"x_max":267.875,"ha":441,"o":"m 124 173 l 267 173 l 245 56 l 91 -161 l 4 -161 l 101 56 l 124 173 "},"d":{"x_min":64,"x_max":887.8125,"ha":882,"o":"m 580 113 q 462 13 530 47 q 310 -20 393 -20 q 130 57 196 -20 q 64 270 64 135 q 104 485 64 383 q 219 668 144 587 q 333 749 270 721 q 465 778 396 778 q 594 742 538 778 q 680 641 650 707 l 762 1055 l 887 1055 l 682 0 l 557 0 l 580 113 m 194 292 q 238 139 194 194 q 361 84 282 84 q 469 112 419 84 q 557 195 519 140 q 619 327 596 252 q 643 474 643 401 q 598 622 643 569 q 476 675 554 675 q 366 647 417 675 q 280 566 315 619 q 217 435 240 510 q 194 292 194 361 "},"Ꞌ":{"x_min":187.171875,"x_max":444.203125,"ha":557,"o":"m 307 1012 l 444 1012 l 358 568 l 297 326 l 187 326 l 221 568 l 307 1012 "},"E":{"x_min":37.296875,"x_max":874.84375,"ha":878,"o":"m 234 1013 l 874 1013 l 852 898 l 348 898 l 290 597 l 773 597 l 751 482 l 267 482 l 197 115 l 712 115 l 690 0 l 37 0 l 234 1013 "},"Y":{"x_min":87.484375,"x_max":938.59375,"ha":848,"o":"m 87 1013 l 234 1013 l 423 596 l 784 1013 l 938 1013 l 479 482 l 385 0 l 248 0 l 341 482 l 87 1013 "},"\"":{"x_min":134,"x_max":506,"ha":640,"o":"m 249 1012 l 249 636 l 134 636 l 134 1012 l 249 1012 m 506 1012 l 506 636 l 391 636 l 391 1012 l 506 1012 "},"Ɱ":{"x_min":65.109375,"x_max":1188.15625,"ha":1198,"o":"m 261 1013 l 465 1013 l 590 323 l 984 1013 l 1188 1013 l 1005 70 q 883 -195 969 -112 q 644 -278 798 -278 l 592 -278 l 614 -163 l 660 -163 q 798 -112 751 -163 q 871 70 845 -61 l 1030 889 l 634 195 l 497 195 l 370 889 l 198 0 l 65 0 l 261 1013 "},"ⱴ":{"x_min":54.25,"x_max":849.0625,"ha":822,"o":"m 167 572 q 444 813 208 780 q 552 647 588 833 q 395 480 532 543 l 300 437 l 355 122 l 716 760 l 849 760 l 416 0 l 246 0 l 179 380 l 54 323 l 80 456 q 160 488 115 469 l 167 572 m 282 542 q 450 652 443 617 q 425 688 456 688 q 286 579 307 688 q 282 542 281 554 "},"ꟿ":{"x_min":-52.5,"x_max":1718.1875,"ha":1665,"o":"m 592 133 l 999 1013 l 1177 1013 l 1177 156 l 1579 1013 l 1718 1013 l 1267 0 l 1073 0 l 1073 879 l 665 0 l 488 0 l 488 856 l 86 0 l -52 0 l 398 1013 l 592 1013 l 592 133 "},"|":{"x_min":176,"x_max":291,"ha":467,"o":"m 291 1061 l 291 -328 l 176 -328 l 176 1061 l 291 1061 "},"ⱬ":{"x_min":4.75,"x_max":761.578125,"ha":729,"o":"m 168 760 l 761 760 l 739 645 l 164 100 l 758 100 l 701 -191 l 577 -191 l 614 0 l 4 0 l 26 114 l 602 660 l 149 660 l 168 760 "},"b":{"x_min":49.828125,"x_max":815,"ha":881,"o":"m 687 463 q 641 617 687 561 q 517 673 596 673 q 409 644 459 673 q 321 563 359 616 q 259 432 282 506 q 237 284 237 358 q 281 137 237 190 q 403 84 325 84 q 512 111 462 84 q 600 192 562 138 q 663 322 639 248 q 687 463 687 396 m 299 643 q 414 741 345 706 q 560 777 484 777 q 746 698 677 777 q 815 485 815 619 q 774 272 815 375 q 659 89 734 169 q 547 8 610 36 q 413 -20 483 -20 q 285 13 339 -20 q 196 114 230 47 l 174 0 l 49 0 l 255 1055 l 380 1055 l 299 643 "},"q":{"x_min":64,"x_max":829.859375,"ha":882,"o":"m 579 113 q 461 13 529 47 q 310 -20 393 -20 q 129 57 194 -20 q 64 271 64 135 q 104 483 64 381 q 220 667 144 585 q 332 748 268 720 q 465 777 395 777 q 604 744 549 777 q 682 643 658 711 l 704 758 l 829 758 l 627 -286 l 501 -286 l 579 113 m 194 289 q 236 136 194 189 q 357 84 278 84 q 558 196 475 84 q 642 471 642 309 q 598 621 642 569 q 475 673 555 673 q 366 645 416 673 q 278 565 315 618 q 216 434 239 509 q 194 289 194 360 "},"ⱪ":{"x_min":42.046875,"x_max":847.03125,"ha":804,"o":"m 247 1055 l 373 1055 l 251 431 l 687 759 l 847 759 l 375 403 l 628 103 l 736 103 l 678 -193 l 554 -193 l 591 0 l 553 0 l 240 370 l 167 0 l 42 0 l 247 1055 "},"z":{"x_min":-4.0625,"x_max":754.125,"ha":729,"o":"m 161 760 l 754 760 l 731 645 l 160 100 l 632 100 l 612 0 l -4 0 l 18 114 l 590 660 l 141 660 l 161 760 "},"":{"x_min":37,"x_max":798.015625,"ha":849,"o":"m 454 671 q 281 592 354 671 q 181 378 207 514 q 171 269 171 326 q 197 163 171 212 q 340 85 240 85 q 513 164 440 85 q 613 377 587 242 q 624 486 624 429 q 597 591 624 543 q 454 671 554 671 m 454 1055 l 798 1055 l 778 955 l 458 955 q 314 861 331 955 q 312 842 312 851 q 344 792 312 808 q 475 777 376 777 q 709 671 636 777 q 758 494 758 600 q 745 379 758 441 q 596 86 709 192 q 319 -20 482 -20 q 85 86 156 -20 q 37 263 37 156 q 49 378 37 316 q 246 709 93 604 q 178 847 178 755 q 180 870 178 859 q 271 1004 196 954 q 454 1055 347 1055 "},"ⱶ":{"x_min":56.96875,"x_max":674.78125,"ha":789,"o":"m 655 350 l 249 350 l 181 0 l 56 0 l 204 759 l 329 759 l 268 447 l 674 447 l 655 350 "},"ꚍ":{"x_min":94.9375,"x_max":842.28125,"ha":809,"o":"m 114 760 l 842 760 l 822 660 l 518 660 l 443 275 q 442 138 423 171 q 533 105 461 105 l 566 105 l 545 0 l 498 0 q 332 65 375 0 q 318 275 290 130 l 393 660 l 94 660 l 114 760 "},"Ꚋ":{"x_min":59.359375,"x_max":1004,"ha":1118,"o":"m 81 1013 l 938 1013 l 916 898 l 555 898 l 496 598 l 778 598 q 966 517 905 598 q 1004 381 1004 467 q 993 278 1004 334 l 953 70 q 832 -195 917 -111 q 592 -278 747 -278 l 540 -278 l 563 -163 l 605 -163 q 744 -112 696 -163 q 816 70 791 -62 l 854 267 q 863 345 863 309 q 844 429 863 397 q 728 483 814 483 l 475 483 l 381 0 l 243 0 l 417 898 l 59 898 l 81 1013 "},"Ꜽ":{"x_min":-59.671875,"x_max":1447.21875,"ha":1332,"o":"m 575 877 l 290 374 l 663 374 l 575 877 m 823 -70 q 686 -247 747 -204 q 543 -289 627 -289 l 397 -289 l 420 -174 l 536 -174 q 621 -149 587 -174 q 706 -33 655 -124 l 725 0 l 684 260 l 227 260 l 84 0 l -59 0 l 524 1012 l 679 1012 l 832 188 l 1304 1013 l 1447 1013 l 823 -70 "},"ꜫ":{"x_min":13,"x_max":696.90625,"ha":750,"o":"m 247 290 q 127 456 127 326 q 153 584 127 512 q 259 717 180 656 q 471 779 338 779 q 696 735 572 779 l 672 611 q 466 670 559 670 q 320 624 373 670 q 250 465 250 563 q 281 377 250 418 q 391 337 313 337 l 496 337 l 476 234 l 376 234 q 231 193 281 234 q 159 107 181 153 q 138 -6 138 62 q 332 -174 138 -174 q 560 -97 448 -174 l 535 -226 q 296 -277 404 -277 q 63 -195 134 -277 q 13 -44 13 -138 q 99 203 13 107 q 247 290 159 269 "},"Ꜧ":{"x_min":65.109375,"x_max":1033.53125,"ha":1044,"o":"m 261 1013 l 398 1013 l 318 598 l 815 598 l 896 1013 l 1033 1013 l 850 70 q 729 -195 814 -112 q 489 -278 643 -278 l 437 -278 l 459 -163 l 502 -163 q 640 -112 593 -163 q 713 70 687 -61 l 793 483 l 295 483 l 202 0 l 65 0 l 261 1013 "},"~":{"x_min":147,"x_max":1016,"ha":1163,"o":"m 1016 554 l 1016 433 q 884 356 944 379 q 757 334 823 334 q 584 373 683 334 q 573 377 576 376 q 558 383 568 379 q 389 425 453 425 q 271 399 330 425 q 147 317 213 373 l 147 437 q 278 514 218 491 q 405 538 339 538 q 579 497 479 538 q 589 493 586 494 q 604 487 595 491 q 773 446 709 446 q 888 471 831 446 q 1016 554 946 497 "},"Ꜿ":{"x_min":86.75,"x_max":993,"ha":969,"o":"m 86 76 l 114 220 q 252 122 179 154 q 410 91 325 91 q 614 146 526 91 q 765 316 701 202 q 827 471 806 389 q 849 636 849 553 q 777 847 849 774 q 569 920 705 920 q 388 889 475 920 q 219 799 301 859 l 251 961 q 414 1013 332 995 q 579 1031 496 1031 q 883 925 774 1031 q 993 630 993 819 q 951 393 993 509 q 832 179 909 276 q 643 28 749 77 q 395 -20 537 -20 q 231 4 309 -20 q 86 76 153 28 m 395 568 l 538 568 l 504 396 l 361 396 l 395 568 "},"Ꚍ":{"x_min":59.671875,"x_max":938.59375,"ha":848,"o":"m 82 1013 l 938 1013 l 916 898 l 554 898 l 447 348 q 449 165 421 216 q 567 115 476 115 l 610 115 l 587 0 l 535 0 q 328 82 381 0 q 310 348 274 164 l 417 898 l 59 898 l 82 1013 "},"ꙩ":{"x_min":64,"x_max":786,"ha":850,"o":"m 376 484 l 519 484 l 485 312 l 342 312 l 376 484 m 352 -20 q 141 62 219 -20 q 64 287 64 144 q 90 455 64 370 q 160 600 117 541 q 310 734 227 690 q 497 777 392 777 q 706 697 626 777 q 786 486 786 616 q 759 306 786 395 q 690 157 733 216 q 541 23 623 66 q 352 -20 458 -20 m 194 291 q 236 137 194 188 q 367 85 279 85 q 574 195 492 85 q 657 473 657 304 q 613 621 657 571 q 483 672 569 672 q 358 639 413 672 q 260 539 303 606 q 211 424 228 488 q 194 291 194 359 "},"[":{"x_min":55.609375,"x_max":583.21875,"ha":542,"o":"m 295 1055 l 583 1055 l 563 958 l 401 958 l 198 -87 l 360 -87 l 343 -184 l 55 -184 l 295 1055 "},"L":{"x_min":37.296875,"x_max":690.375,"ha":774,"o":"m 233 1012 l 370 1012 l 197 114 l 690 114 l 668 0 l 37 0 l 233 1012 "},"Ⱨ":{"x_min":59,"x_max":1027.421875,"ha":1044,"o":"m 693 0 l 787 482 l 289 482 l 195 0 l 59 0 l 255 1012 l 392 1012 l 311 597 l 809 597 l 890 1012 l 1027 1012 l 853 115 l 989 115 l 925 -218 l 788 -218 l 830 0 l 693 0 "},"Ɫ":{"x_min":-42.71875,"x_max":690.375,"ha":774,"o":"m 234 1012 l 371 1012 l 276 521 q 278 520 277 520 q 297 514 288 514 q 339 539 322 514 q 368 618 356 563 l 453 618 q 390 478 434 528 q 284 428 346 428 q 258 430 271 428 l 197 115 l 690 115 l 668 0 l 37 0 l 139 522 q 132 526 135 524 q 113 533 122 533 q 70 507 88 533 q 42 428 53 483 l -42 428 q 20 568 -23 518 q 126 619 64 619 q 157 614 143 619 l 234 1012 "}," ":{"x_min":0,"x_max":0,"ha":441},"ꙫ":{"x_min":66.421875,"x_max":923.984375,"ha":989,"o":"m 321 484 l 464 484 l 431 312 l 288 312 l 321 484 m 565 484 l 708 484 l 675 312 l 532 312 l 565 484 m 552 672 q 327 593 419 672 q 208 378 235 515 q 243 164 182 242 q 438 85 304 85 q 661 164 569 85 q 780 378 754 243 q 745 592 807 513 q 552 672 683 672 m 572 777 q 858 671 767 777 q 913 378 950 566 q 745 86 877 192 q 417 -20 613 -20 q 131 86 221 -20 q 76 378 40 192 q 244 671 113 566 q 572 777 376 777 "},"%":{"x_min":126,"x_max":1193,"ha":1320,"o":"m 326 479 q 179 539 233 479 q 126 702 126 599 q 204 940 126 849 q 409 1031 283 1031 q 556 970 502 1031 q 610 805 610 909 q 531 569 610 660 q 326 479 452 479 m 501 801 q 474 908 501 872 q 396 945 448 945 q 277 879 320 945 q 235 695 235 813 q 262 598 235 632 q 340 565 289 565 q 457 629 413 565 q 501 801 501 694 m 1084 302 q 1058 411 1084 375 q 980 447 1032 447 q 862 380 905 447 q 819 197 819 314 q 846 99 819 133 q 924 66 873 66 q 1040 130 997 66 q 1084 302 1084 195 m 910 -20 q 764 40 818 -20 q 711 204 711 100 q 789 441 711 350 q 994 532 867 532 q 1139 472 1086 532 q 1193 308 1193 412 q 1114 71 1193 162 q 910 -20 1036 -20 m 1141 1031 l 304 -20 l 196 -20 l 1033 1031 l 1141 1031 "},"P":{"x_min":36.921875,"x_max":834,"ha":837,"o":"m 234 1013 l 550 1013 q 761 948 688 1013 q 834 759 834 884 q 727 499 834 592 q 426 407 620 407 l 253 407 l 174 0 l 36 0 l 234 1013 m 349 900 l 276 520 l 448 520 q 627 579 565 520 q 690 750 690 639 q 647 860 690 821 q 528 900 605 900 l 349 900 "},"_":{"x_min":-13,"x_max":709,"ha":696,"o":"m 709 -231 l 709 -328 l -13 -328 l -13 -231 l 709 -231 "},"+":{"x_min":147,"x_max":1016,"ha":1163,"o":"m 639 871 l 639 493 l 1016 493 l 1016 378 l 639 378 l 639 0 l 525 0 l 525 378 l 147 378 l 147 493 l 525 493 l 525 871 l 639 871 "},"Ꙧ":{"x_min":37.296875,"x_max":1653.375,"ha":1198,"o":"m 234 1012 l 440 1012 l 558 329 l 950 1012 l 1653 1012 l 1631 897 l 1138 897 l 963 0 l 830 0 l 1003 887 l 605 194 l 472 194 l 343 890 l 170 0 l 37 0 l 234 1012 "},"ꝋ":{"x_min":1.25,"x_max":977.8125,"ha":978,"o":"m 563 777 q 798 671 726 777 q 844 447 857 586 l 977 447 l 958 349 l 828 349 q 684 86 789 183 q 408 -20 571 -20 q 173 86 245 -20 q 132 349 107 183 l 1 349 l 20 447 l 154 447 q 286 671 195 586 q 563 777 400 777 m 543 672 q 369 593 442 672 q 286 447 315 536 l 714 447 q 685 592 714 534 q 543 672 642 672 m 696 349 l 264 349 q 285 163 247 233 q 429 85 328 85 q 602 164 528 85 q 696 349 667 233 "},"ꙍ":{"x_min":85,"x_max":1330,"ha":1428,"o":"m 1296 654 q 1330 422 1330 537 q 1315 273 1330 347 q 989 -20 1258 -20 q 845 56 932 -20 q 678 133 759 133 q 480 56 596 133 q 307 -20 363 -20 q 85 179 85 -20 q 95 273 85 222 q 263 654 131 460 l 397 654 q 221 262 255 432 q 215 201 215 228 q 328 85 215 85 q 427 123 370 85 q 537 193 520 185 q 697 231 611 231 q 843 193 782 231 q 925 123 854 185 q 1010 85 967 85 q 1185 264 1151 85 q 1198 395 1198 326 q 1162 654 1198 514 l 1296 654 "},"ꟻ":{"x_min":119.359375,"x_max":760.90625,"ha":799,"o":"m 760 1013 l 564 0 l 427 0 l 520 484 l 119 484 l 142 599 l 543 599 l 601 898 l 156 898 l 179 1013 l 760 1013 "},"'":{"x_min":134,"x_max":249,"ha":382,"o":"m 249 1012 l 249 636 l 134 636 l 134 1012 l 249 1012 "},"ꝉ":{"x_min":124.78125,"x_max":576.4375,"ha":593,"o":"m 336 1055 l 461 1055 l 423 861 l 576 861 l 554 750 l 402 750 l 256 0 l 131 0 l 277 750 l 124 750 l 146 861 l 299 861 l 336 1055 "},"Ꜻ":{"x_min":-87.484375,"x_max":1435.6875,"ha":1349,"o":"m 546 877 l 263 374 l 635 374 l 546 877 m 1068 374 l 1311 374 l 1289 260 l 1002 260 l 853 0 l 697 0 l 655 260 l 199 260 l 56 0 l -87 0 l 495 1012 l 651 1012 l 770 374 l 928 374 l 1293 1013 l 1435 1013 l 1068 374 m 862 260 l 791 260 l 809 165 l 862 260 "},"Ꚕ":{"x_min":165.46875,"x_max":927,"ha":952,"o":"m 446 737 l 419 597 l 701 597 q 889 516 828 597 q 927 380 927 466 q 916 277 927 333 l 862 0 l 726 0 l 777 267 q 786 344 786 309 q 767 428 786 395 q 651 482 735 482 l 396 482 l 303 0 l 165 0 l 308 737 q 404 947 337 881 q 595 1012 472 1012 l 767 1012 l 747 907 l 602 907 q 498 874 531 907 q 446 737 466 841 "},"T":{"x_min":59.671875,"x_max":938.59375,"ha":848,"o":"m 82 1012 l 938 1012 l 916 897 l 555 897 l 381 0 l 244 0 l 417 897 l 59 897 l 82 1012 "},"ꝇ":{"x_min":116.640625,"x_max":425.890625,"ha":545,"o":"m 116 452 l 233 1055 l 358 1055 l 257 537 l 425 587 l 311 0 l 187 0 l 284 502 l 116 452 "},"ꙧ":{"x_min":52.21875,"x_max":1405.84375,"ha":1400,"o":"m 200 760 l 382 760 l 499 251 l 814 760 l 1405 760 l 1386 660 l 975 660 l 847 0 l 722 0 l 847 639 l 541 146 l 416 146 l 302 640 l 177 0 l 52 0 l 200 760 "},"j":{"x_min":-156.65625,"x_max":384.515625,"ha":386,"o":"m 201 759 l 326 759 l 176 -13 l 175 -17 q 118 -194 150 -146 q 28 -264 87 -240 q -109 -289 -29 -289 l -156 -289 l -136 -183 l -104 -183 q 0 -152 -31 -183 q 51 -13 30 -122 l 201 759 m 259 1055 l 384 1055 l 354 897 l 229 897 l 259 1055 "},"1":{"x_min":67.8125,"x_max":673.421875,"ha":884,"o":"m 90 115 l 314 115 l 465 894 l 212 845 l 236 963 l 487 1012 l 625 1012 l 450 115 l 673 115 l 651 0 l 67 0 l 90 115 "},"ⱷ":{"x_min":64.65625,"x_max":849.515625,"ha":916,"o":"m 617 659 q 554 560 573 659 l 463 94 q 606 165 527 94 q 705 379 676 228 q 689 597 732 521 q 617 659 654 659 m 638 765 q 801 675 735 765 q 837 379 873 579 q 687 86 804 195 q 442 -17 577 -17 l 318 -17 q 112 86 183 -17 q 76 379 40 192 q 225 672 113 573 q 425 765 311 746 l 404 654 q 307 586 356 639 q 208 379 232 508 q 225 163 182 242 q 339 94 263 94 l 429 560 q 638 765 469 765 "},"<":{"x_min":147,"x_max":1016,"ha":1163,"o":"m 1016 683 l 316 434 l 1016 187 l 1016 63 l 147 379 l 147 491 l 1016 807 l 1016 683 "},"t":{"x_min":89.046875,"x_max":587.71875,"ha":545,"o":"m 587 760 l 568 663 l 319 663 l 239 250 q 233 211 235 226 q 231 186 231 195 q 257 123 231 143 q 340 104 283 104 l 467 104 l 445 0 l 326 0 q 160 43 215 0 q 106 174 106 86 q 108 209 106 190 q 114 250 110 227 l 195 663 l 89 663 l 108 760 l 212 760 l 254 975 l 379 975 l 338 760 l 587 760 "},"Ꙗ":{"x_min":44.765625,"x_max":1272.25,"ha":1368,"o":"m 978 878 l 694 374 l 1066 374 l 978 878 m 929 1012 l 1084 1012 l 1272 0 l 1129 0 l 1087 260 l 631 260 l 488 0 l 343 0 l 602 449 l 269 449 l 181 0 l 44 0 l 241 1013 l 378 1013 l 291 564 l 669 564 l 929 1012 "},"W":{"x_min":165,"x_max":1416.859375,"ha":1373,"o":"m 165 1013 l 291 1013 l 291 151 l 697 1013 l 875 1013 l 875 151 l 1277 1013 l 1416 1013 l 966 0 l 771 0 l 771 844 l 368 0 l 165 0 l 165 1013 "},"ꚕ":{"x_min":23.734375,"x_max":760.140625,"ha":880,"o":"m 273 641 l 273 641 q 398 743 331 709 q 545 778 466 778 q 728 697 676 778 q 748 458 779 615 l 659 0 l 535 0 l 623 453 q 612 615 644 561 q 497 669 581 669 q 324 604 396 669 q 232 428 254 540 l 149 0 l 23 0 l 155 679 l 174 779 q 271 989 203 924 q 461 1055 339 1055 l 634 1055 l 613 949 l 455 949 q 352 916 384 949 q 299 779 320 883 l 273 641 "},"Ꜷ":{"x_min":-73.921875,"x_max":1577.421875,"ha":1604,"o":"m 560 876 l 276 373 l 648 373 l 560 876 m 511 1011 l 666 1011 l 811 231 q 1012 91 837 91 q 1216 162 1143 91 q 1320 396 1289 234 l 1439 1012 l 1577 1012 l 1455 380 q 1303 77 1415 175 q 996 -20 1191 -20 q 756 56 836 -20 q 678 202 695 114 l 669 259 l 213 259 l 70 0 l -73 0 l 511 1011 "},">":{"x_min":147,"x_max":1016,"ha":1163,"o":"m 147 683 l 147 807 l 1016 491 l 1016 379 l 147 63 l 147 187 l 845 434 l 147 683 "},"v":{"x_min":99.6875,"x_max":838.890625,"ha":822,"o":"m 99 760 l 231 760 l 343 114 l 706 760 l 838 760 l 406 0 l 238 0 l 99 760 "},"Ⱳ":{"x_min":271,"x_max":1731.703125,"ha":1566,"o":"m 1448 846 l 1073 0 l 879 0 l 879 878 l 471 0 l 271 0 l 271 1013 l 404 1013 l 404 156 l 805 1013 l 983 1013 l 983 156 l 1324 876 q 1395 968 1346 924 q 1558 1031 1465 1031 q 1697 968 1651 1031 q 1728 832 1742 906 l 1710 743 l 1595 743 l 1611 825 q 1596 888 1618 861 q 1543 916 1574 916 q 1481 888 1514 916 q 1448 846 1459 869 "},"ⱹ":{"x_min":-102.40625,"x_max":506.8125,"ha":575,"o":"m 218 0 l 241 117 q -40 -19 137 -19 q -102 -12 -65 -19 l -77 115 q 17 92 -42 92 q 193 160 123 92 q 288 358 263 229 l 370 779 q 370 916 390 883 q 280 949 351 949 l 123 949 l 143 1055 l 316 1055 q 481 989 440 1055 q 495 779 523 923 l 343 0 l 218 0 "},"Ꙣ":{"x_min":-50.859375,"x_max":1513.671875,"ha":1423,"o":"m 61 115 q 202 239 160 157 q 381 821 307 445 l 418 1012 l 1513 1012 l 1491 897 l 998 897 l 846 115 l 961 115 l 897 -218 l 781 -218 l 823 0 l 106 0 l 64 -218 l -50 -218 l 13 115 l 61 115 m 261 115 l 709 115 l 861 897 l 532 897 l 504 753 q 319 190 438 414 q 261 115 294 144 "},"Ꙑ":{"x_min":116.40625,"x_max":1391.21875,"ha":1429,"o":"m 1253 1013 l 1391 1013 l 1193 0 l 1056 0 l 1253 1013 m 241 0 l 415 898 l 116 898 l 138 1013 l 574 1013 l 494 596 l 720 596 q 968 522 890 596 q 1025 374 1025 468 q 1016 297 1025 339 q 881 73 987 147 q 604 0 774 0 l 241 0 m 878 348 q 691 483 878 483 l 471 483 l 399 113 l 619 113 q 872 297 836 113 q 878 348 878 324 "},"&":{"x_min":65,"x_max":1021.453125,"ha":1082,"o":"m 655 176 l 366 544 q 242 417 284 484 q 200 280 200 350 q 257 142 200 194 q 412 90 315 90 q 537 112 475 90 q 655 176 599 134 m 1021 543 q 941 345 990 435 q 821 182 891 256 l 963 0 l 792 0 l 720 94 q 565 8 648 37 q 392 -20 483 -20 q 154 53 243 -20 q 65 249 65 127 q 127 447 65 354 q 313 619 190 540 q 282 682 292 650 q 273 751 273 714 q 288 838 273 797 q 333 914 304 880 q 450 1000 380 969 q 602 1031 521 1031 q 708 1018 655 1031 q 817 982 762 1006 l 793 858 q 692 907 742 890 q 594 924 641 924 q 457 880 510 924 q 405 768 405 836 q 417 709 405 738 q 477 620 430 680 l 753 267 q 840 390 804 321 q 895 543 876 460 l 1021 543 "},"I":{"x_min":37.296875,"x_max":372.3125,"ha":410,"o":"m 234 1013 l 372 1013 l 174 0 l 37 0 l 234 1013 "},"G":{"x_min":62,"x_max":1006.234375,"ha":1075,"o":"m 757 150 l 810 416 l 585 416 l 606 529 l 965 529 l 878 82 q 681 6 787 33 q 467 -20 575 -20 q 169 85 276 -20 q 62 380 62 191 q 127 678 62 537 q 308 914 192 820 q 466 1002 380 973 q 657 1031 552 1031 q 839 1006 752 1031 q 1006 934 926 982 l 978 788 q 835 886 917 852 q 660 920 753 920 q 470 878 552 920 q 324 751 388 837 q 237 578 269 678 q 206 376 206 479 q 278 162 206 234 q 494 91 351 91 q 633 106 566 91 q 757 150 701 121 "},"`":{"x_min":263.8125,"x_max":539.140625,"ha":694,"o":"m 397 1111 l 539 857 l 434 857 l 263 1111 l 397 1111 "},"ꞁ":{"x_min":29.15625,"x_max":357.390625,"ha":386,"o":"m 299 778 l 299 778 m 232 760 l 357 760 l 153 -289 l 29 -289 l 232 760 "},"ꝏ":{"x_min":64.65625,"x_max":1350.984375,"ha":1415,"o":"m 1047 672 q 873 593 946 672 q 773 378 799 515 q 789 164 746 242 q 933 85 832 85 q 1106 164 1032 85 q 1206 378 1180 243 q 1189 592 1232 513 q 1047 672 1146 672 m 482 672 q 308 593 381 672 q 208 378 234 515 q 224 164 181 242 q 368 85 267 85 q 541 164 467 85 q 641 378 615 243 q 624 592 668 513 q 482 672 581 672 m 502 777 q 737 672 665 777 q 757 637 748 655 q 790 672 773 655 q 1067 777 904 777 q 1302 671 1230 777 q 1338 378 1375 566 q 1189 86 1302 192 q 912 -20 1075 -20 q 676 86 749 -20 q 657 121 665 102 q 623 86 641 102 q 347 -20 510 -20 q 112 86 184 -20 q 76 378 40 192 q 226 671 113 566 q 502 777 339 777 "},"Ꝏ":{"x_min":63.078125,"x_max":1822.953125,"ha":1886,"o":"m 649 1031 q 962 888 862 1031 q 1003 811 986 852 q 1072 888 1034 852 q 1442 1031 1228 1031 q 1755 888 1655 1031 q 1808 505 1854 745 q 1605 122 1761 265 q 1237 -20 1450 -20 q 923 122 1024 -20 q 882 198 899 157 q 813 122 851 158 q 444 -20 657 -20 q 131 122 231 -20 q 77 505 31 264 q 280 888 124 745 q 649 1031 436 1031 m 842 808 q 627 920 777 920 q 369 808 478 920 q 222 505 259 697 q 251 202 185 313 q 466 91 317 91 q 724 202 615 91 q 870 505 833 313 q 842 808 908 697 m 1635 808 q 1420 920 1569 920 q 1162 808 1271 920 q 1015 505 1052 697 q 1044 202 977 313 q 1259 91 1110 91 q 1517 202 1408 91 q 1663 505 1626 313 q 1635 808 1700 697 "},"r":{"x_min":48.828125,"x_max":642.90625,"ha":571,"o":"m 619 643 q 575 659 600 654 q 523 665 551 665 q 349 589 423 665 q 250 387 274 513 l 173 0 l 48 0 l 197 759 l 322 759 l 298 641 q 416 742 347 706 q 563 778 485 778 q 603 775 583 778 q 642 767 623 773 l 619 643 "},"ꜹ":{"x_min":46.859375,"x_max":1168.484375,"ha":1136,"o":"m 476 381 q 260 346 325 381 q 179 228 195 311 q 202 122 166 161 q 314 84 238 84 q 494 157 417 84 q 595 353 571 231 l 600 381 l 476 381 m 526 0 l 548 114 q 422 12 493 45 q 260 -20 352 -20 q 87 45 143 -20 q 52 220 31 110 q 175 413 77 348 q 444 479 274 479 l 619 479 l 621 491 q 591 624 638 577 q 441 672 543 672 q 311 656 376 672 q 183 609 246 640 l 206 724 q 346 764 280 751 q 474 777 413 777 q 704 692 639 777 q 735 432 769 606 l 674 121 l 1036 759 l 1168 759 l 735 0 l 526 0 "},"x":{"x_min":-35.9375,"x_max":833.46875,"ha":822,"o":"m 833 760 l 484 387 l 698 0 l 555 0 l 394 301 l 115 0 l -35 0 l 337 400 l 139 760 l 282 760 l 427 485 l 682 760 l 833 760 "},"h":{"x_min":48.609375,"x_max":786,"ha":880,"o":"m 773 458 l 684 0 l 559 0 l 648 453 q 657 509 654 485 q 661 548 661 534 q 625 637 661 605 q 524 669 589 669 q 350 601 424 669 q 255 420 277 533 l 173 0 l 48 0 l 254 1055 l 378 1055 l 298 639 q 419 740 345 703 q 574 778 493 778 q 730 723 675 778 q 786 571 786 669 q 782 518 786 546 q 773 458 779 490 "},"ⱽ":{"x_min":61.71875,"x_max":646.296875,"ha":598,"o":"m 195 453 l 61 1020 l 151 1020 l 261 542 l 556 1020 l 646 1020 l 292 453 l 195 453 "},"Ꙇ":{"x_min":91.359375,"x_max":405.546875,"ha":491,"o":"m 105 348 l 234 1012 l 371 1012 l 242 348 q 244 165 217 216 q 362 115 271 115 l 405 115 l 383 0 l 330 0 q 123 82 177 0 q 105 348 69 165 "},".":{"x_min":80.703125,"x_max":257.03125,"ha":441,"o":"m 113 172 l 257 172 l 223 0 l 80 0 l 113 172 "},"Ꜹ":{"x_min":-87.484375,"x_max":1435.6875,"ha":1349,"o":"m 546 877 l 263 374 l 635 374 l 546 877 m 697 0 l 655 260 l 199 260 l 56 0 l -87 0 l 495 1012 l 651 1012 l 809 165 l 1293 1013 l 1435 1013 l 853 0 l 697 0 "},";":{"x_min":1.359375,"x_max":370.953125,"ha":468,"o":"m 122 172 l 265 172 l 241 55 l 88 -161 l 1 -161 l 98 55 l 122 172 m 227 718 l 370 718 l 337 546 l 194 546 l 227 718 "},"f":{"x_min":94.265625,"x_max":663.921875,"ha":489,"o":"m 663 1055 l 644 951 l 524 951 q 426 924 457 951 q 380 826 395 897 l 366 759 l 572 759 l 554 662 l 348 662 l 219 0 l 94 0 l 223 662 l 104 662 l 122 759 l 241 759 l 251 811 q 342 1000 277 946 q 545 1055 406 1055 l 663 1055 "},"A":{"x_min":-73.921875,"x_max":854.5,"ha":950,"o":"m 511 1012 l 666 1012 l 854 0 l 711 0 l 669 260 l 213 260 l 70 0 l -73 0 l 511 1012 m 560 877 l 276 374 l 648 374 l 560 877 "},"6":{"x_min":87,"x_max":821.796875,"ha":884,"o":"m 637 374 q 592 510 637 460 q 473 560 548 560 q 296 479 367 560 q 225 279 225 398 q 268 139 225 189 q 389 89 312 89 q 566 171 495 89 q 637 374 637 254 m 821 988 l 798 864 q 708 903 759 889 q 600 917 657 917 q 374 828 459 917 q 247 551 289 740 q 362 639 296 609 q 503 669 427 669 q 701 597 627 669 q 775 405 775 525 q 738 221 775 306 q 633 71 702 135 q 522 3 585 27 q 388 -20 459 -20 q 167 68 248 -20 q 87 312 87 157 q 123 589 87 456 q 227 820 160 722 q 396 977 297 923 q 616 1031 496 1031 q 720 1020 669 1031 q 821 988 772 1009 "},"ꙇ":{"x_min":99.15625,"x_max":358.078125,"ha":470,"o":"m 329 759 l 235 275 q 234 138 214 171 q 324 105 253 105 l 358 105 l 337 0 l 290 0 q 124 65 167 0 q 110 275 82 130 l 204 759 l 329 759 "},"O":{"x_min":56,"x_max":1038,"ha":1094,"o":"m 633 920 q 435 865 521 920 q 285 698 349 810 q 223 547 244 627 q 202 385 202 467 q 269 167 202 244 q 460 91 336 91 q 658 146 571 91 q 807 310 745 201 q 870 464 848 384 q 892 625 892 545 q 824 842 892 765 q 633 920 756 920 m 456 -20 q 162 90 269 -20 q 56 393 56 201 q 97 617 56 503 q 212 822 139 732 q 404 979 298 927 q 637 1031 510 1031 q 930 921 823 1031 q 1038 622 1038 811 q 997 393 1038 505 q 880 188 956 280 q 689 31 793 83 q 456 -20 584 -20 "},"n":{"x_min":48.609375,"x_max":786,"ha":880,"o":"m 773 458 l 684 0 l 559 0 l 648 453 q 657 509 654 485 q 661 548 661 534 q 625 637 661 605 q 524 669 589 669 q 351 602 424 669 q 256 420 279 535 l 173 0 l 48 0 l 195 759 l 320 759 l 295 639 q 420 741 347 705 q 574 778 494 778 q 730 723 675 778 q 786 571 786 669 q 782 518 786 546 q 773 458 779 490 "},"3":{"x_min":3.0625,"x_max":795,"ha":885,"o":"m 220 987 q 364 1020 294 1009 q 503 1031 435 1031 q 716 971 637 1031 q 795 811 795 911 q 732 642 795 712 q 561 545 670 571 q 686 469 646 521 q 727 333 727 418 q 687 180 727 252 q 575 58 648 109 q 442 0 520 18 q 264 -20 365 -20 q 135 -7 200 -20 q 3 30 70 5 l 28 159 q 156 107 91 124 q 289 90 221 90 q 505 158 422 90 q 589 337 589 227 q 536 446 589 408 q 384 485 483 485 l 266 485 l 287 596 l 412 596 q 590 647 525 596 q 655 787 655 699 q 607 886 655 851 q 473 921 560 921 q 340 907 408 921 q 199 865 272 893 l 220 987 "},"ꜵ":{"x_min":57,"x_max":1325,"ha":1389,"o":"m 891 -20 q 680 62 758 -20 q 619 167 639 106 q 441 6 545 43 q 272 -20 364 -20 q 119 39 181 -20 q 57 191 57 98 q 163 401 57 324 q 455 479 269 479 l 629 479 l 635 512 q 637 524 637 517 q 638 544 638 530 q 589 638 638 604 q 451 672 540 672 q 326 656 390 672 q 194 609 262 640 l 216 724 q 354 764 286 751 q 484 777 421 777 q 689 719 619 777 q 741 650 723 690 q 849 734 791 703 q 1036 777 931 777 q 1245 697 1165 777 q 1325 486 1325 616 q 1298 306 1325 395 q 1229 157 1272 216 q 1080 23 1162 66 q 891 -20 997 -20 m 906 85 q 1113 195 1031 85 q 1196 473 1196 304 q 1152 621 1196 571 q 1022 672 1108 672 q 897 639 952 672 q 798 539 842 606 q 749 424 767 488 q 732 291 732 359 q 775 137 732 188 q 906 85 818 85 m 610 381 l 486 381 q 259 340 332 381 q 185 213 185 299 q 223 119 185 153 q 327 85 261 85 q 505 158 429 85 q 605 353 581 231 l 610 381 "},"9":{"x_min":61.171875,"x_max":798,"ha":884,"o":"m 61 22 l 86 146 q 175 107 125 121 q 283 94 226 94 q 510 182 424 94 q 637 459 595 271 q 521 371 587 401 q 379 341 455 341 q 182 412 255 341 q 110 605 110 484 q 146 789 110 704 q 252 938 182 874 q 361 1007 299 983 q 494 1031 424 1031 q 716 941 635 1031 q 798 698 798 852 q 760 421 798 555 q 656 190 722 288 q 486 33 585 87 q 266 -20 387 -20 q 162 -9 214 -20 q 61 22 110 1 m 246 637 q 290 500 246 551 q 411 450 335 450 q 587 530 516 450 q 659 731 659 611 q 614 871 659 820 q 493 922 570 922 q 317 839 388 922 q 246 637 246 757 "},"ꙣ":{"x_min":-19.671875,"x_max":1291.234375,"ha":1285,"o":"m 83 100 q 189 184 150 127 q 339 615 283 327 l 366 760 l 1291 760 l 1271 660 l 861 660 l 752 100 l 851 100 l 795 -192 l 695 -192 l 733 0 l 117 0 l 80 -192 l -19 -192 l 36 100 l 83 100 m 264 100 l 626 100 l 735 660 l 473 660 l 455 565 q 291 136 400 285 l 264 100 "},"ⱻ":{"x_min":66.453125,"x_max":703.265625,"ha":682,"o":"m 703 759 l 555 0 l 66 0 l 86 100 l 448 100 l 498 355 l 160 355 l 179 455 l 517 455 l 557 659 l 203 659 l 223 759 l 703 759 "},"Ꜵ":{"x_min":-73.84375,"x_max":1637,"ha":1693,"o":"m 560 877 l 276 373 l 648 373 l 560 877 m 511 1011 l 666 1011 l 727 688 q 811 822 762 761 q 1003 979 897 927 q 1236 1031 1109 1031 q 1529 921 1422 1031 q 1637 622 1637 811 q 1596 393 1637 505 q 1479 188 1555 281 q 1288 31 1392 82 q 1055 -20 1183 -20 q 762 90 868 -20 q 670 259 695 158 l 213 259 l 70 0 l -73 0 l 511 1011 m 1232 920 q 1034 865 1120 920 q 884 698 948 810 q 822 547 843 627 q 801 385 801 467 q 868 167 801 244 q 1059 91 935 91 q 1257 146 1170 91 q 1406 310 1344 201 q 1469 464 1447 384 q 1491 625 1491 545 q 1423 842 1491 765 q 1232 920 1355 920 "},"l":{"x_min":48.828125,"x_max":379.09375,"ha":386,"o":"m 254 1055 l 379 1055 l 173 0 l 48 0 l 254 1055 "},"4":{"x_min":25.09375,"x_max":784.640625,"ha":884,"o":"m 597 1012 l 769 1012 l 640 353 l 784 353 l 762 239 l 617 239 l 572 0 l 436 0 l 482 239 l 25 239 l 51 371 l 597 1012 m 609 893 l 158 353 l 503 353 l 609 893 "},"p":{"x_min":-4.140625,"x_max":817.859375,"ha":882,"o":"m 689 467 q 645 620 689 567 q 520 673 602 673 q 414 644 465 673 q 324 561 364 616 q 263 432 286 508 q 240 281 240 356 q 283 135 240 186 q 406 84 326 84 q 516 111 465 84 q 602 192 566 139 q 665 323 641 248 q 689 467 689 398 m 302 643 q 420 743 352 709 q 572 777 488 777 q 753 700 688 777 q 817 486 817 624 q 777 272 817 374 q 662 89 737 170 q 549 8 612 36 q 416 -20 486 -20 q 280 13 335 -20 q 198 113 225 46 l 120 -289 l -4 -289 l 199 759 l 324 759 l 302 643 "},"ꞃ":{"x_min":-6.671875,"x_max":787,"ha":881,"o":"m 296 639 q 585 778 405 778 q 731 723 676 778 q 787 571 787 669 q 774 458 787 523 l 685 0 l 560 0 l 649 453 q 662 548 662 520 q 626 637 662 605 q 525 669 590 669 q 353 602 425 669 q 257 420 280 536 l 118 -289 l -6 -289 l 196 759 l 321 759 l 296 639 "},"꞉":{"x_min":71.890625,"x_max":355.359375,"ha":468,"o":"m 212 718 l 355 718 l 322 546 l 179 546 l 212 718 m 105 172 l 248 172 l 214 0 l 71 0 l 105 172 "},"Ꝇ":{"x_min":128.171875,"x_max":861.28125,"ha":945,"o":"m 128 464 l 234 1012 l 371 1012 l 282 555 l 463 607 l 368 115 l 861 115 l 838 0 l 208 0 l 309 516 l 128 464 "}}}
